<svg xmlns="http://www.w3.org/2000/svg" xmlns:xlink="http://www.w3.org/1999/xlink" width="480" height="300">\n<path  d="M 0 0
L 480 0
L 480 300
L 0 300
L 0 0" style="stroke-width:0;stroke:rgba(255,255,255,1.0);fill:rgba(255,255,255,1.0)"/><path  d="M 20 66
L 445 66
L 445 225
L 20 225
L 20 66" style="stroke-width:0;stroke:rgba(255,255,255,1.0);fill:rgba(255,255,255,1.0)"/><path  d="M 25 203
L 85 203
L 85 225
L 25 225
L 25 203" style="stroke-width:3;stroke:rgba(106,195,203,1.0);fill:rgba(106,195,203,1.0)"/><path  d="M 96 219
L 156 219
L 156 225
L 96 225
L 96 219" style="stroke-width:3;stroke:rgba(42,190,137,1.0);fill:rgba(42,190,137,1.0)"/><path  d="M 167 146
L 227 146
L 227 225
L 167 225
L 167 146" style="stroke-width:3;stroke:rgba(110,128,139,1.0);fill:rgba(110,128,139,1.0)"/><path  d="M 238 66
L 298 66
L 298 225
L 238 225
L 238 66" style="stroke-width:3;stroke:rgba(240,174,90,1.0);fill:rgba(240,174,90,1.0)"/><path  d="M 309 154
L 369 154
L 369 225
L 309 225
L 309 154" style="stroke-width:3;stroke:rgba(0,116,217,1.0);fill:rgba(0,116,217,1.0)"/><path  d="M 380 184
L 440 184
L 440 225
L 380 225
L 380 184" style="stroke-width:3;stroke:rgba(0,217,101,1.0);fill:rgba(0,217,101,1.0)"/><path  d="M 20 225
L 445 225" style="stroke-width:0;stroke:rgba(51,51,51,1.0);fill:none"/><path  d="M 20 225
L 20 230" style="stroke-width:0;stroke:rgba(51,51,51,1.0);fill:none"/><text x="27" y="247" style="stroke-width:0;stroke:none;fill:rgba(51,51,51,1.0);font-size:12.8px;font-family:'Roboto Medium',sans-serif">Response</text><text x="41" y="264" style="stroke-width:0;stroke:none;fill:rgba(51,51,51,1.0);font-size:12.8px;font-family:'Roboto Medium',sans-serif">Error</text><path  d="M 91 225
L 91 230" style="stroke-width:0;stroke:rgba(51,51,51,1.0);fill:none"/><text x="98" y="247" style="stroke-width:0;stroke:none;fill:rgba(51,51,51,1.0);font-size:12.8px;font-family:'Roboto Medium',sans-serif">Response</text><text x="108" y="264" style="stroke-width:0;stroke:none;fill:rgba(51,51,51,1.0);font-size:12.8px;font-family:'Roboto Medium',sans-serif">Empty</text><path  d="M 162 225
L 162 230" style="stroke-width:0;stroke:rgba(51,51,51,1.0);fill:none"/><text x="172" y="247" style="stroke-width:0;stroke:none;fill:rgba(51,51,51,1.0);font-size:12.8px;font-family:'Roboto Medium',sans-serif">No Code</text><path  d="M 233 225
L 233 230" style="stroke-width:0;stroke:rgba(51,51,51,1.0);fill:none"/><text x="249" y="247" style="stroke-width:0;stroke:none;fill:rgba(51,51,51,1.0);font-size:12.8px;font-family:'Roboto Medium',sans-serif">Invalid</text><text x="253" y="264" style="stroke-width:0;stroke:none;fill:rgba(51,51,51,1.0);font-size:12.8px;font-family:'Roboto Medium',sans-serif">Code</text><path  d="M 304 225
L 304 230" style="stroke-width:0;stroke:rgba(51,51,51,1.0);fill:none"/><text x="309" y="247" style="stroke-width:0;stroke:none;fill:rgba(51,51,51,1.0);font-size:12.8px;font-family:'Roboto Medium',sans-serif">Statement</text><text x="312" y="264" style="stroke-width:0;stroke:none;fill:rgba(51,51,51,1.0);font-size:12.8px;font-family:'Roboto Medium',sans-serif">Coverage</text><text x="314" y="281" style="stroke-width:0;stroke:none;fill:rgba(51,51,51,1.0);font-size:12.8px;font-family:'Roboto Medium',sans-serif">Reached</text><path  d="M 375 225
L 375 230" style="stroke-width:0;stroke:rgba(51,51,51,1.0);fill:none"/><text x="380" y="247" style="stroke-width:0;stroke:none;fill:rgba(51,51,51,1.0);font-size:12.8px;font-family:'Roboto Medium',sans-serif">No Excess</text><text x="382" y="264" style="stroke-width:0;stroke:none;fill:rgba(51,51,51,1.0);font-size:12.8px;font-family:'Roboto Medium',sans-serif">Response</text><path  d="M 445 225
L 445 66" style="stroke-width:0;stroke:rgba(51,51,51,1.0);fill:none"/><path  d="M 445 225
L 450 225" style="stroke-width:0;stroke:rgba(51,51,51,1.0);fill:none"/><text x="455" y="231" style="stroke-width:0;stroke:none;fill:rgba(51,51,51,1.0);font-size:12.8px;font-family:'Roboto Medium',sans-serif">0</text><path  d="M 445 222
L 450 222" style="stroke-width:0;stroke:rgba(51,51,51,1.0);fill:none"/><text x="455" y="228" style="stroke-width:0;stroke:none;fill:rgba(51,51,51,1.0);font-size:12.8px;font-family:'Roboto Medium',sans-serif">1</text><path  d="M 445 219
L 450 219" style="stroke-width:0;stroke:rgba(51,51,51,1.0);fill:none"/><text x="455" y="225" style="stroke-width:0;stroke:none;fill:rgba(51,51,51,1.0);font-size:12.8px;font-family:'Roboto Medium',sans-serif">2</text><path  d="M 445 216
L 450 216" style="stroke-width:0;stroke:rgba(51,51,51,1.0);fill:none"/><text x="455" y="222" style="stroke-width:0;stroke:none;fill:rgba(51,51,51,1.0);font-size:12.8px;font-family:'Roboto Medium',sans-serif">3</text><path  d="M 445 214
L 450 214" style="stroke-width:0;stroke:rgba(51,51,51,1.0);fill:none"/><text x="455" y="220" style="stroke-width:0;stroke:none;fill:rgba(51,51,51,1.0);font-size:12.8px;font-family:'Roboto Medium',sans-serif">4</text><path  d="M 445 211
L 450 211" style="stroke-width:0;stroke:rgba(51,51,51,1.0);fill:none"/><text x="455" y="217" style="stroke-width:0;stroke:none;fill:rgba(51,51,51,1.0);font-size:12.8px;font-family:'Roboto Medium',sans-serif">5</text><path  d="M 445 208
L 450 208" style="stroke-width:0;stroke:rgba(51,51,51,1.0);fill:none"/><text x="455" y="214" style="stroke-width:0;stroke:none;fill:rgba(51,51,51,1.0);font-size:12.8px;font-family:'Roboto Medium',sans-serif">6</text><path  d="M 445 206
L 450 206" style="stroke-width:0;stroke:rgba(51,51,51,1.0);fill:none"/><text x="455" y="212" style="stroke-width:0;stroke:none;fill:rgba(51,51,51,1.0);font-size:12.8px;font-family:'Roboto Medium',sans-serif">7</text><path  d="M 445 203
L 450 203" style="stroke-width:0;stroke:rgba(51,51,51,1.0);fill:none"/><text x="455" y="209" style="stroke-width:0;stroke:none;fill:rgba(51,51,51,1.0);font-size:12.8px;font-family:'Roboto Medium',sans-serif">8</text><path  d="M 445 200
L 450 200" style="stroke-width:0;stroke:rgba(51,51,51,1.0);fill:none"/><text x="455" y="206" style="stroke-width:0;stroke:none;fill:rgba(51,51,51,1.0);font-size:12.8px;font-family:'Roboto Medium',sans-serif">9</text><path  d="M 445 198
L 450 198" style="stroke-width:0;stroke:rgba(51,51,51,1.0);fill:none"/><text x="455" y="204" style="stroke-width:0;stroke:none;fill:rgba(51,51,51,1.0);font-size:12.8px;font-family:'Roboto Medium',sans-serif">10</text><path  d="M 445 195
L 450 195" style="stroke-width:0;stroke:rgba(51,51,51,1.0);fill:none"/><text x="455" y="201" style="stroke-width:0;stroke:none;fill:rgba(51,51,51,1.0);font-size:12.8px;font-family:'Roboto Medium',sans-serif">11</text><path  d="M 445 192
L 450 192" style="stroke-width:0;stroke:rgba(51,51,51,1.0);fill:none"/><text x="455" y="198" style="stroke-width:0;stroke:none;fill:rgba(51,51,51,1.0);font-size:12.8px;font-family:'Roboto Medium',sans-serif">12</text><path  d="M 445 189
L 450 189" style="stroke-width:0;stroke:rgba(51,51,51,1.0);fill:none"/><text x="455" y="195" style="stroke-width:0;stroke:none;fill:rgba(51,51,51,1.0);font-size:12.8px;font-family:'Roboto Medium',sans-serif">13</text><path  d="M 445 187
L 450 187" style="stroke-width:0;stroke:rgba(51,51,51,1.0);fill:none"/><text x="455" y="193" style="stroke-width:0;stroke:none;fill:rgba(51,51,51,1.0);font-size:12.8px;font-family:'Roboto Medium',sans-serif">14</text><path  d="M 445 184
L 450 184" style="stroke-width:0;stroke:rgba(51,51,51,1.0);fill:none"/><text x="455" y="190" style="stroke-width:0;stroke:none;fill:rgba(51,51,51,1.0);font-size:12.8px;font-family:'Roboto Medium',sans-serif">15</text><path  d="M 445 181
L 450 181" style="stroke-width:0;stroke:rgba(51,51,51,1.0);fill:none"/><text x="455" y="187" style="stroke-width:0;stroke:none;fill:rgba(51,51,51,1.0);font-size:12.8px;font-family:'Roboto Medium',sans-serif">16</text><path  d="M 445 179
L 450 179" style="stroke-width:0;stroke:rgba(51,51,51,1.0);fill:none"/><text x="455" y="185" style="stroke-width:0;stroke:none;fill:rgba(51,51,51,1.0);font-size:12.8px;font-family:'Roboto Medium',sans-serif">17</text><path  d="M 445 176
L 450 176" style="stroke-width:0;stroke:rgba(51,51,51,1.0);fill:none"/><text x="455" y="182" style="stroke-width:0;stroke:none;fill:rgba(51,51,51,1.0);font-size:12.8px;font-family:'Roboto Medium',sans-serif">18</text><path  d="M 445 173
L 450 173" style="stroke-width:0;stroke:rgba(51,51,51,1.0);fill:none"/><text x="455" y="179" style="stroke-width:0;stroke:none;fill:rgba(51,51,51,1.0);font-size:12.8px;font-family:'Roboto Medium',sans-serif">19</text><path  d="M 445 171
L 450 171" style="stroke-width:0;stroke:rgba(51,51,51,1.0);fill:none"/><text x="455" y="177" style="stroke-width:0;stroke:none;fill:rgba(51,51,51,1.0);font-size:12.8px;font-family:'Roboto Medium',sans-serif">20</text><path  d="M 445 168
L 450 168" style="stroke-width:0;stroke:rgba(51,51,51,1.0);fill:none"/><text x="455" y="174" style="stroke-width:0;stroke:none;fill:rgba(51,51,51,1.0);font-size:12.8px;font-family:'Roboto Medium',sans-serif">21</text><path  d="M 445 165
L 450 165" style="stroke-width:0;stroke:rgba(51,51,51,1.0);fill:none"/><text x="455" y="171" style="stroke-width:0;stroke:none;fill:rgba(51,51,51,1.0);font-size:12.8px;font-family:'Roboto Medium',sans-serif">22</text><path  d="M 445 163
L 450 163" style="stroke-width:0;stroke:rgba(51,51,51,1.0);fill:none"/><text x="455" y="169" style="stroke-width:0;stroke:none;fill:rgba(51,51,51,1.0);font-size:12.8px;font-family:'Roboto Medium',sans-serif">23</text><path  d="M 445 160
L 450 160" style="stroke-width:0;stroke:rgba(51,51,51,1.0);fill:none"/><text x="455" y="166" style="stroke-width:0;stroke:none;fill:rgba(51,51,51,1.0);font-size:12.8px;font-family:'Roboto Medium',sans-serif">24</text><path  d="M 445 157
L 450 157" style="stroke-width:0;stroke:rgba(51,51,51,1.0);fill:none"/><text x="455" y="163" style="stroke-width:0;stroke:none;fill:rgba(51,51,51,1.0);font-size:12.8px;font-family:'Roboto Medium',sans-serif">25</text><path  d="M 445 154
L 450 154" style="stroke-width:0;stroke:rgba(51,51,51,1.0);fill:none"/><text x="455" y="160" style="stroke-width:0;stroke:none;fill:rgba(51,51,51,1.0);font-size:12.8px;font-family:'Roboto Medium',sans-serif">26</text><path  d="M 445 152
L 450 152" style="stroke-width:0;stroke:rgba(51,51,51,1.0);fill:none"/><text x="455" y="158" style="stroke-width:0;stroke:none;fill:rgba(51,51,51,1.0);font-size:12.8px;font-family:'Roboto Medium',sans-serif">27</text><path  d="M 445 149
L 450 149" style="stroke-width:0;stroke:rgba(51,51,51,1.0);fill:none"/><text x="455" y="155" style="stroke-width:0;stroke:none;fill:rgba(51,51,51,1.0);font-size:12.8px;font-family:'Roboto Medium',sans-serif">28</text><path  d="M 445 146
L 450 146" style="stroke-width:0;stroke:rgba(51,51,51,1.0);fill:none"/><text x="455" y="152" style="stroke-width:0;stroke:none;fill:rgba(51,51,51,1.0);font-size:12.8px;font-family:'Roboto Medium',sans-serif">29</text><path  d="M 445 144
L 450 144" style="stroke-width:0;stroke:rgba(51,51,51,1.0);fill:none"/><text x="455" y="150" style="stroke-width:0;stroke:none;fill:rgba(51,51,51,1.0);font-size:12.8px;font-family:'Roboto Medium',sans-serif">30</text><path  d="M 445 141
L 450 141" style="stroke-width:0;stroke:rgba(51,51,51,1.0);fill:none"/><text x="455" y="147" style="stroke-width:0;stroke:none;fill:rgba(51,51,51,1.0);font-size:12.8px;font-family:'Roboto Medium',sans-serif">31</text><path  d="M 445 138
L 450 138" style="stroke-width:0;stroke:rgba(51,51,51,1.0);fill:none"/><text x="455" y="144" style="stroke-width:0;stroke:none;fill:rgba(51,51,51,1.0);font-size:12.8px;font-family:'Roboto Medium',sans-serif">32</text><path  d="M 445 136
L 450 136" style="stroke-width:0;stroke:rgba(51,51,51,1.0);fill:none"/><text x="455" y="142" style="stroke-width:0;stroke:none;fill:rgba(51,51,51,1.0);font-size:12.8px;font-family:'Roboto Medium',sans-serif">33</text><path  d="M 445 133
L 450 133" style="stroke-width:0;stroke:rgba(51,51,51,1.0);fill:none"/><text x="455" y="139" style="stroke-width:0;stroke:none;fill:rgba(51,51,51,1.0);font-size:12.8px;font-family:'Roboto Medium',sans-serif">34</text><path  d="M 445 130
L 450 130" style="stroke-width:0;stroke:rgba(51,51,51,1.0);fill:none"/><text x="455" y="136" style="stroke-width:0;stroke:none;fill:rgba(51,51,51,1.0);font-size:12.8px;font-family:'Roboto Medium',sans-serif">35</text><path  d="M 445 127
L 450 127" style="stroke-width:0;stroke:rgba(51,51,51,1.0);fill:none"/><text x="455" y="133" style="stroke-width:0;stroke:none;fill:rgba(51,51,51,1.0);font-size:12.8px;font-family:'Roboto Medium',sans-serif">36</text><path  d="M 445 125
L 450 125" style="stroke-width:0;stroke:rgba(51,51,51,1.0);fill:none"/><text x="455" y="131" style="stroke-width:0;stroke:none;fill:rgba(51,51,51,1.0);font-size:12.8px;font-family:'Roboto Medium',sans-serif">37</text><path  d="M 445 122
L 450 122" style="stroke-width:0;stroke:rgba(51,51,51,1.0);fill:none"/><text x="455" y="128" style="stroke-width:0;stroke:none;fill:rgba(51,51,51,1.0);font-size:12.8px;font-family:'Roboto Medium',sans-serif">38</text><path  d="M 445 119
L 450 119" style="stroke-width:0;stroke:rgba(51,51,51,1.0);fill:none"/><text x="455" y="125" style="stroke-width:0;stroke:none;fill:rgba(51,51,51,1.0);font-size:12.8px;font-family:'Roboto Medium',sans-serif">39</text><path  d="M 445 117
L 450 117" style="stroke-width:0;stroke:rgba(51,51,51,1.0);fill:none"/><text x="455" y="123" style="stroke-width:0;stroke:none;fill:rgba(51,51,51,1.0);font-size:12.8px;font-family:'Roboto Medium',sans-serif">40</text><path  d="M 445 114
L 450 114" style="stroke-width:0;stroke:rgba(51,51,51,1.0);fill:none"/><text x="455" y="120" style="stroke-width:0;stroke:none;fill:rgba(51,51,51,1.0);font-size:12.8px;font-family:'Roboto Medium',sans-serif">41</text><path  d="M 445 111
L 450 111" style="stroke-width:0;stroke:rgba(51,51,51,1.0);fill:none"/><text x="455" y="117" style="stroke-width:0;stroke:none;fill:rgba(51,51,51,1.0);font-size:12.8px;font-family:'Roboto Medium',sans-serif">42</text><path  d="M 445 109
L 450 109" style="stroke-width:0;stroke:rgba(51,51,51,1.0);fill:none"/><text x="455" y="115" style="stroke-width:0;stroke:none;fill:rgba(51,51,51,1.0);font-size:12.8px;font-family:'Roboto Medium',sans-serif">43</text><path  d="M 445 106
L 450 106" style="stroke-width:0;stroke:rgba(51,51,51,1.0);fill:none"/><text x="455" y="112" style="stroke-width:0;stroke:none;fill:rgba(51,51,51,1.0);font-size:12.8px;font-family:'Roboto Medium',sans-serif">44</text><path  d="M 445 103
L 450 103" style="stroke-width:0;stroke:rgba(51,51,51,1.0);fill:none"/><text x="455" y="109" style="stroke-width:0;stroke:none;fill:rgba(51,51,51,1.0);font-size:12.8px;font-family:'Roboto Medium',sans-serif">45</text><path  d="M 445 101
L 450 101" style="stroke-width:0;stroke:rgba(51,51,51,1.0);fill:none"/><text x="455" y="107" style="stroke-width:0;stroke:none;fill:rgba(51,51,51,1.0);font-size:12.8px;font-family:'Roboto Medium',sans-serif">46</text><path  d="M 445 98
L 450 98" style="stroke-width:0;stroke:rgba(51,51,51,1.0);fill:none"/><text x="455" y="104" style="stroke-width:0;stroke:none;fill:rgba(51,51,51,1.0);font-size:12.8px;font-family:'Roboto Medium',sans-serif">47</text><path  d="M 445 95
L 450 95" style="stroke-width:0;stroke:rgba(51,51,51,1.0);fill:none"/><text x="455" y="101" style="stroke-width:0;stroke:none;fill:rgba(51,51,51,1.0);font-size:12.8px;font-family:'Roboto Medium',sans-serif">48</text><path  d="M 445 92
L 450 92" style="stroke-width:0;stroke:rgba(51,51,51,1.0);fill:none"/><text x="455" y="98" style="stroke-width:0;stroke:none;fill:rgba(51,51,51,1.0);font-size:12.8px;font-family:'Roboto Medium',sans-serif">49</text><path  d="M 445 90
L 450 90" style="stroke-width:0;stroke:rgba(51,51,51,1.0);fill:none"/><text x="455" y="96" style="stroke-width:0;stroke:none;fill:rgba(51,51,51,1.0);font-size:12.8px;font-family:'Roboto Medium',sans-serif">50</text><path  d="M 445 87
L 450 87" style="stroke-width:0;stroke:rgba(51,51,51,1.0);fill:none"/><text x="455" y="93" style="stroke-width:0;stroke:none;fill:rgba(51,51,51,1.0);font-size:12.8px;font-family:'Roboto Medium',sans-serif">51</text><path  d="M 445 84
L 450 84" style="stroke-width:0;stroke:rgba(51,51,51,1.0);fill:none"/><text x="455" y="90" style="stroke-width:0;stroke:none;fill:rgba(51,51,51,1.0);font-size:12.8px;font-family:'Roboto Medium',sans-serif">52</text><path  d="M 445 82
L 450 82" style="stroke-width:0;stroke:rgba(51,51,51,1.0);fill:none"/><text x="455" y="88" style="stroke-width:0;stroke:none;fill:rgba(51,51,51,1.0);font-size:12.8px;font-family:'Roboto Medium',sans-serif">53</text><path  d="M 445 79
L 450 79" style="stroke-width:0;stroke:rgba(51,51,51,1.0);fill:none"/><text x="455" y="85" style="stroke-width:0;stroke:none;fill:rgba(51,51,51,1.0);font-size:12.8px;font-family:'Roboto Medium',sans-serif">54</text><path  d="M 445 76
L 450 76" style="stroke-width:0;stroke:rgba(51,51,51,1.0);fill:none"/><text x="455" y="82" style="stroke-width:0;stroke:none;fill:rgba(51,51,51,1.0);font-size:12.8px;font-family:'Roboto Medium',sans-serif">55</text><path  d="M 445 74
L 450 74" style="stroke-width:0;stroke:rgba(51,51,51,1.0);fill:none"/><text x="455" y="80" style="stroke-width:0;stroke:none;fill:rgba(51,51,51,1.0);font-size:12.8px;font-family:'Roboto Medium',sans-serif">56</text><path  d="M 445 71
L 450 71" style="stroke-width:0;stroke:rgba(51,51,51,1.0);fill:none"/><text x="455" y="77" style="stroke-width:0;stroke:none;fill:rgba(51,51,51,1.0);font-size:12.8px;font-family:'Roboto Medium',sans-serif">57</text><path  d="M 445 68
L 450 68" style="stroke-width:0;stroke:rgba(51,51,51,1.0);fill:none"/><text x="455" y="74" style="stroke-width:0;stroke:none;fill:rgba(51,51,51,1.0);font-size:12.8px;font-family:'Roboto Medium',sans-serif">58</text><path  d="M 445 66
L 450 66" style="stroke-width:0;stroke:rgba(51,51,51,1.0);fill:none"/><text x="455" y="72" style="stroke-width:0;stroke:none;fill:rgba(51,51,51,1.0);font-size:12.8px;font-family:'Roboto Medium',sans-serif">59</text><path  d="M 20 225
L 445 225" style="stroke-width:0;stroke:none;fill:none"/><path  d="M 20 222
L 445 222" style="stroke-width:0;stroke:none;fill:none"/><path  d="M 20 219
L 445 219" style="stroke-width:0;stroke:none;fill:none"/><path  d="M 20 216
L 445 216" style="stroke-width:0;stroke:none;fill:none"/><path  d="M 20 214
L 445 214" style="stroke-width:0;stroke:none;fill:none"/><path  d="M 20 211
L 445 211" style="stroke-width:0;stroke:none;fill:none"/><path  d="M 20 208
L 445 208" style="stroke-width:0;stroke:none;fill:none"/><path  d="M 20 206
L 445 206" style="stroke-width:0;stroke:none;fill:none"/><path  d="M 20 203
L 445 203" style="stroke-width:0;stroke:none;fill:none"/><path  d="M 20 200
L 445 200" style="stroke-width:0;stroke:none;fill:none"/><path  d="M 20 198
L 445 198" style="stroke-width:0;stroke:none;fill:none"/><path  d="M 20 195
L 445 195" style="stroke-width:0;stroke:none;fill:none"/><path  d="M 20 192
L 445 192" style="stroke-width:0;stroke:none;fill:none"/><path  d="M 20 189
L 445 189" style="stroke-width:0;stroke:none;fill:none"/><path  d="M 20 187
L 445 187" style="stroke-width:0;stroke:none;fill:none"/><path  d="M 20 184
L 445 184" style="stroke-width:0;stroke:none;fill:none"/><path  d="M 20 181
L 445 181" style="stroke-width:0;stroke:none;fill:none"/><path  d="M 20 179
L 445 179" style="stroke-width:0;stroke:none;fill:none"/><path  d="M 20 176
L 445 176" style="stroke-width:0;stroke:none;fill:none"/><path  d="M 20 173
L 445 173" style="stroke-width:0;stroke:none;fill:none"/><path  d="M 20 171
L 445 171" style="stroke-width:0;stroke:none;fill:none"/><path  d="M 20 168
L 445 168" style="stroke-width:0;stroke:none;fill:none"/><path  d="M 20 165
L 445 165" style="stroke-width:0;stroke:none;fill:none"/><path  d="M 20 163
L 445 163" style="stroke-width:0;stroke:none;fill:none"/><path  d="M 20 160
L 445 160" style="stroke-width:0;stroke:none;fill:none"/><path  d="M 20 157
L 445 157" style="stroke-width:0;stroke:none;fill:none"/><path  d="M 20 154
L 445 154" style="stroke-width:0;stroke:none;fill:none"/><path  d="M 20 152
L 445 152" style="stroke-width:0;stroke:none;fill:none"/><path  d="M 20 149
L 445 149" style="stroke-width:0;stroke:none;fill:none"/><path  d="M 20 146
L 445 146" style="stroke-width:0;stroke:none;fill:none"/><path  d="M 20 144
L 445 144" style="stroke-width:0;stroke:none;fill:none"/><path  d="M 20 141
L 445 141" style="stroke-width:0;stroke:none;fill:none"/><path  d="M 20 138
L 445 138" style="stroke-width:0;stroke:none;fill:none"/><path  d="M 20 136
L 445 136" style="stroke-width:0;stroke:none;fill:none"/><path  d="M 20 133
L 445 133" style="stroke-width:0;stroke:none;fill:none"/><path  d="M 20 130
L 445 130" style="stroke-width:0;stroke:none;fill:none"/><path  d="M 20 127
L 445 127" style="stroke-width:0;stroke:none;fill:none"/><path  d="M 20 125
L 445 125" style="stroke-width:0;stroke:none;fill:none"/><path  d="M 20 122
L 445 122" style="stroke-width:0;stroke:none;fill:none"/><path  d="M 20 119
L 445 119" style="stroke-width:0;stroke:none;fill:none"/><path  d="M 20 117
L 445 117" style="stroke-width:0;stroke:none;fill:none"/><path  d="M 20 114
L 445 114" style="stroke-width:0;stroke:none;fill:none"/><path  d="M 20 111
L 445 111" style="stroke-width:0;stroke:none;fill:none"/><path  d="M 20 109
L 445 109" style="stroke-width:0;stroke:none;fill:none"/><path  d="M 20 106
L 445 106" style="stroke-width:0;stroke:none;fill:none"/><path  d="M 20 103
L 445 103" style="stroke-width:0;stroke:none;fill:none"/><path  d="M 20 101
L 445 101" style="stroke-width:0;stroke:none;fill:none"/><path  d="M 20 98
L 445 98" style="stroke-width:0;stroke:none;fill:none"/><path  d="M 20 95
L 445 95" style="stroke-width:0;stroke:none;fill:none"/><path  d="M 20 92
L 445 92" style="stroke-width:0;stroke:none;fill:none"/><path  d="M 20 90
L 445 90" style="stroke-width:0;stroke:none;fill:none"/><path  d="M 20 87
L 445 87" style="stroke-width:0;stroke:none;fill:none"/><path  d="M 20 84
L 445 84" style="stroke-width:0;stroke:none;fill:none"/><path  d="M 20 82
L 445 82" style="stroke-width:0;stroke:none;fill:none"/><path  d="M 20 79
L 445 79" style="stroke-width:0;stroke:none;fill:none"/><path  d="M 20 76
L 445 76" style="stroke-width:0;stroke:none;fill:none"/><path  d="M 20 74
L 445 74" style="stroke-width:0;stroke:none;fill:none"/><path  d="M 20 71
L 445 71" style="stroke-width:0;stroke:none;fill:none"/><path  d="M 20 68
L 445 68" style="stroke-width:0;stroke:none;fill:none"/><text x="169" y="25" style="stroke-width:0;stroke:none;fill:rgba(51,51,51,1.0);font-size:15.3px;font-family:'Roboto Medium',sans-serif">Models per Category</text></svg>