<svg xmlns="http://www.w3.org/2000/svg" xmlns:xlink="http://www.w3.org/1999/xlink" width="480" height="300">\n<path  d="M 0 0
L 480 0
L 480 300
L 0 300
L 0 0" style="stroke-width:0;stroke:rgba(255,255,255,1.0);fill:rgba(255,255,255,1.0)"/><path  d="M 20 66
L 445 66
L 445 225
L 20 225
L 20 66" style="stroke-width:0;stroke:rgba(255,255,255,1.0);fill:rgba(255,255,255,1.0)"/><path  d="M 25 193
L 85 193
L 85 225
L 25 225
L 25 193" style="stroke-width:3;stroke:rgba(106,195,203,1.0);fill:rgba(106,195,203,1.0)"/><path  d="M 96 217
L 156 217
L 156 225
L 96 225
L 96 217" style="stroke-width:3;stroke:rgba(42,190,137,1.0);fill:rgba(42,190,137,1.0)"/><path  d="M 167 157
L 227 157
L 227 225
L 167 225
L 167 157" style="stroke-width:3;stroke:rgba(110,128,139,1.0);fill:rgba(110,128,139,1.0)"/><path  d="M 238 66
L 298 66
L 298 225
L 238 225
L 238 66" style="stroke-width:3;stroke:rgba(240,174,90,1.0);fill:rgba(240,174,90,1.0)"/><path  d="M 309 162
L 369 162
L 369 225
L 309 225
L 309 162" style="stroke-width:3;stroke:rgba(0,116,217,1.0);fill:rgba(0,116,217,1.0)"/><path  d="M 380 191
L 440 191
L 440 225
L 380 225
L 380 191" style="stroke-width:3;stroke:rgba(0,217,101,1.0);fill:rgba(0,217,101,1.0)"/><path  d="M 20 225
L 445 225" style="stroke-width:0;stroke:rgba(51,51,51,1.0);fill:none"/><path  d="M 20 225
L 20 230" style="stroke-width:0;stroke:rgba(51,51,51,1.0);fill:none"/><text x="27" y="247" style="stroke-width:0;stroke:none;fill:rgba(51,51,51,1.0);font-size:12.8px;font-family:'Roboto Medium',sans-serif">Response</text><text x="41" y="264" style="stroke-width:0;stroke:none;fill:rgba(51,51,51,1.0);font-size:12.8px;font-family:'Roboto Medium',sans-serif">Error</text><path  d="M 91 225
L 91 230" style="stroke-width:0;stroke:rgba(51,51,51,1.0);fill:none"/><text x="98" y="247" style="stroke-width:0;stroke:none;fill:rgba(51,51,51,1.0);font-size:12.8px;font-family:'Roboto Medium',sans-serif">Response</text><text x="108" y="264" style="stroke-width:0;stroke:none;fill:rgba(51,51,51,1.0);font-size:12.8px;font-family:'Roboto Medium',sans-serif">Empty</text><path  d="M 162 225
L 162 230" style="stroke-width:0;stroke:rgba(51,51,51,1.0);fill:none"/><text x="172" y="247" style="stroke-width:0;stroke:none;fill:rgba(51,51,51,1.0);font-size:12.8px;font-family:'Roboto Medium',sans-serif">No Code</text><path  d="M 233 225
L 233 230" style="stroke-width:0;stroke:rgba(51,51,51,1.0);fill:none"/><text x="249" y="247" style="stroke-width:0;stroke:none;fill:rgba(51,51,51,1.0);font-size:12.8px;font-family:'Roboto Medium',sans-serif">Invalid</text><text x="253" y="264" style="stroke-width:0;stroke:none;fill:rgba(51,51,51,1.0);font-size:12.8px;font-family:'Roboto Medium',sans-serif">Code</text><path  d="M 304 225
L 304 230" style="stroke-width:0;stroke:rgba(51,51,51,1.0);fill:none"/><text x="309" y="247" style="stroke-width:0;stroke:none;fill:rgba(51,51,51,1.0);font-size:12.8px;font-family:'Roboto Medium',sans-serif">Statement</text><text x="312" y="264" style="stroke-width:0;stroke:none;fill:rgba(51,51,51,1.0);font-size:12.8px;font-family:'Roboto Medium',sans-serif">Coverage</text><text x="314" y="281" style="stroke-width:0;stroke:none;fill:rgba(51,51,51,1.0);font-size:12.8px;font-family:'Roboto Medium',sans-serif">Reached</text><path  d="M 375 225
L 375 230" style="stroke-width:0;stroke:rgba(51,51,51,1.0);fill:none"/><text x="380" y="247" style="stroke-width:0;stroke:none;fill:rgba(51,51,51,1.0);font-size:12.8px;font-family:'Roboto Medium',sans-serif">No Excess</text><text x="382" y="264" style="stroke-width:0;stroke:none;fill:rgba(51,51,51,1.0);font-size:12.8px;font-family:'Roboto Medium',sans-serif">Response</text><path  d="M 445 225
L 445 66" style="stroke-width:0;stroke:rgba(51,51,51,1.0);fill:none"/><path  d="M 445 225
L 450 225" style="stroke-width:0;stroke:rgba(51,51,51,1.0);fill:none"/><text x="455" y="231" style="stroke-width:0;stroke:none;fill:rgba(51,51,51,1.0);font-size:12.8px;font-family:'Roboto Medium',sans-serif">0</text><path  d="M 445 222
L 450 222" style="stroke-width:0;stroke:rgba(51,51,51,1.0);fill:none"/><text x="455" y="228" style="stroke-width:0;stroke:none;fill:rgba(51,51,51,1.0);font-size:12.8px;font-family:'Roboto Medium',sans-serif">1</text><path  d="M 445 219
L 450 219" style="stroke-width:0;stroke:rgba(51,51,51,1.0);fill:none"/><text x="455" y="225" style="stroke-width:0;stroke:none;fill:rgba(51,51,51,1.0);font-size:12.8px;font-family:'Roboto Medium',sans-serif">2</text><path  d="M 445 217
L 450 217" style="stroke-width:0;stroke:rgba(51,51,51,1.0);fill:none"/><text x="455" y="223" style="stroke-width:0;stroke:none;fill:rgba(51,51,51,1.0);font-size:12.8px;font-family:'Roboto Medium',sans-serif">3</text><path  d="M 445 214
L 450 214" style="stroke-width:0;stroke:rgba(51,51,51,1.0);fill:none"/><text x="455" y="220" style="stroke-width:0;stroke:none;fill:rgba(51,51,51,1.0);font-size:12.8px;font-family:'Roboto Medium',sans-serif">4</text><path  d="M 445 211
L 450 211" style="stroke-width:0;stroke:rgba(51,51,51,1.0);fill:none"/><text x="455" y="217" style="stroke-width:0;stroke:none;fill:rgba(51,51,51,1.0);font-size:12.8px;font-family:'Roboto Medium',sans-serif">5</text><path  d="M 445 209
L 450 209" style="stroke-width:0;stroke:rgba(51,51,51,1.0);fill:none"/><text x="455" y="215" style="stroke-width:0;stroke:none;fill:rgba(51,51,51,1.0);font-size:12.8px;font-family:'Roboto Medium',sans-serif">6</text><path  d="M 445 206
L 450 206" style="stroke-width:0;stroke:rgba(51,51,51,1.0);fill:none"/><text x="455" y="212" style="stroke-width:0;stroke:none;fill:rgba(51,51,51,1.0);font-size:12.8px;font-family:'Roboto Medium',sans-serif">7</text><path  d="M 445 204
L 450 204" style="stroke-width:0;stroke:rgba(51,51,51,1.0);fill:none"/><text x="455" y="210" style="stroke-width:0;stroke:none;fill:rgba(51,51,51,1.0);font-size:12.8px;font-family:'Roboto Medium',sans-serif">8</text><path  d="M 445 201
L 450 201" style="stroke-width:0;stroke:rgba(51,51,51,1.0);fill:none"/><text x="455" y="207" style="stroke-width:0;stroke:none;fill:rgba(51,51,51,1.0);font-size:12.8px;font-family:'Roboto Medium',sans-serif">9</text><path  d="M 445 198
L 450 198" style="stroke-width:0;stroke:rgba(51,51,51,1.0);fill:none"/><text x="455" y="204" style="stroke-width:0;stroke:none;fill:rgba(51,51,51,1.0);font-size:12.8px;font-family:'Roboto Medium',sans-serif">10</text><path  d="M 445 196
L 450 196" style="stroke-width:0;stroke:rgba(51,51,51,1.0);fill:none"/><text x="455" y="202" style="stroke-width:0;stroke:none;fill:rgba(51,51,51,1.0);font-size:12.8px;font-family:'Roboto Medium',sans-serif">11</text><path  d="M 445 193
L 450 193" style="stroke-width:0;stroke:rgba(51,51,51,1.0);fill:none"/><text x="455" y="199" style="stroke-width:0;stroke:none;fill:rgba(51,51,51,1.0);font-size:12.8px;font-family:'Roboto Medium',sans-serif">12</text><path  d="M 445 191
L 450 191" style="stroke-width:0;stroke:rgba(51,51,51,1.0);fill:none"/><text x="455" y="197" style="stroke-width:0;stroke:none;fill:rgba(51,51,51,1.0);font-size:12.8px;font-family:'Roboto Medium',sans-serif">13</text><path  d="M 445 188
L 450 188" style="stroke-width:0;stroke:rgba(51,51,51,1.0);fill:none"/><text x="455" y="194" style="stroke-width:0;stroke:none;fill:rgba(51,51,51,1.0);font-size:12.8px;font-family:'Roboto Medium',sans-serif">14</text><path  d="M 445 185
L 450 185" style="stroke-width:0;stroke:rgba(51,51,51,1.0);fill:none"/><text x="455" y="191" style="stroke-width:0;stroke:none;fill:rgba(51,51,51,1.0);font-size:12.8px;font-family:'Roboto Medium',sans-serif">15</text><path  d="M 445 183
L 450 183" style="stroke-width:0;stroke:rgba(51,51,51,1.0);fill:none"/><text x="455" y="189" style="stroke-width:0;stroke:none;fill:rgba(51,51,51,1.0);font-size:12.8px;font-family:'Roboto Medium',sans-serif">16</text><path  d="M 445 180
L 450 180" style="stroke-width:0;stroke:rgba(51,51,51,1.0);fill:none"/><text x="455" y="186" style="stroke-width:0;stroke:none;fill:rgba(51,51,51,1.0);font-size:12.8px;font-family:'Roboto Medium',sans-serif">17</text><path  d="M 445 178
L 450 178" style="stroke-width:0;stroke:rgba(51,51,51,1.0);fill:none"/><text x="455" y="184" style="stroke-width:0;stroke:none;fill:rgba(51,51,51,1.0);font-size:12.8px;font-family:'Roboto Medium',sans-serif">18</text><path  d="M 445 175
L 450 175" style="stroke-width:0;stroke:rgba(51,51,51,1.0);fill:none"/><text x="455" y="181" style="stroke-width:0;stroke:none;fill:rgba(51,51,51,1.0);font-size:12.8px;font-family:'Roboto Medium',sans-serif">19</text><path  d="M 445 172
L 450 172" style="stroke-width:0;stroke:rgba(51,51,51,1.0);fill:none"/><text x="455" y="178" style="stroke-width:0;stroke:none;fill:rgba(51,51,51,1.0);font-size:12.8px;font-family:'Roboto Medium',sans-serif">20</text><path  d="M 445 170
L 450 170" style="stroke-width:0;stroke:rgba(51,51,51,1.0);fill:none"/><text x="455" y="176" style="stroke-width:0;stroke:none;fill:rgba(51,51,51,1.0);font-size:12.8px;font-family:'Roboto Medium',sans-serif">21</text><path  d="M 445 167
L 450 167" style="stroke-width:0;stroke:rgba(51,51,51,1.0);fill:none"/><text x="455" y="173" style="stroke-width:0;stroke:none;fill:rgba(51,51,51,1.0);font-size:12.8px;font-family:'Roboto Medium',sans-serif">22</text><path  d="M 445 165
L 450 165" style="stroke-width:0;stroke:rgba(51,51,51,1.0);fill:none"/><text x="455" y="171" style="stroke-width:0;stroke:none;fill:rgba(51,51,51,1.0);font-size:12.8px;font-family:'Roboto Medium',sans-serif">23</text><path  d="M 445 162
L 450 162" style="stroke-width:0;stroke:rgba(51,51,51,1.0);fill:none"/><text x="455" y="168" style="stroke-width:0;stroke:none;fill:rgba(51,51,51,1.0);font-size:12.8px;font-family:'Roboto Medium',sans-serif">24</text><path  d="M 445 159
L 450 159" style="stroke-width:0;stroke:rgba(51,51,51,1.0);fill:none"/><text x="455" y="165" style="stroke-width:0;stroke:none;fill:rgba(51,51,51,1.0);font-size:12.8px;font-family:'Roboto Medium',sans-serif">25</text><path  d="M 445 157
L 450 157" style="stroke-width:0;stroke:rgba(51,51,51,1.0);fill:none"/><text x="455" y="163" style="stroke-width:0;stroke:none;fill:rgba(51,51,51,1.0);font-size:12.8px;font-family:'Roboto Medium',sans-serif">26</text><path  d="M 445 154
L 450 154" style="stroke-width:0;stroke:rgba(51,51,51,1.0);fill:none"/><text x="455" y="160" style="stroke-width:0;stroke:none;fill:rgba(51,51,51,1.0);font-size:12.8px;font-family:'Roboto Medium',sans-serif">27</text><path  d="M 445 152
L 450 152" style="stroke-width:0;stroke:rgba(51,51,51,1.0);fill:none"/><text x="455" y="158" style="stroke-width:0;stroke:none;fill:rgba(51,51,51,1.0);font-size:12.8px;font-family:'Roboto Medium',sans-serif">28</text><path  d="M 445 149
L 450 149" style="stroke-width:0;stroke:rgba(51,51,51,1.0);fill:none"/><text x="455" y="155" style="stroke-width:0;stroke:none;fill:rgba(51,51,51,1.0);font-size:12.8px;font-family:'Roboto Medium',sans-serif">29</text><path  d="M 445 146
L 450 146" style="stroke-width:0;stroke:rgba(51,51,51,1.0);fill:none"/><text x="455" y="152" style="stroke-width:0;stroke:none;fill:rgba(51,51,51,1.0);font-size:12.8px;font-family:'Roboto Medium',sans-serif">30</text><path  d="M 445 144
L 450 144" style="stroke-width:0;stroke:rgba(51,51,51,1.0);fill:none"/><text x="455" y="150" style="stroke-width:0;stroke:none;fill:rgba(51,51,51,1.0);font-size:12.8px;font-family:'Roboto Medium',sans-serif">31</text><path  d="M 445 141
L 450 141" style="stroke-width:0;stroke:rgba(51,51,51,1.0);fill:none"/><text x="455" y="147" style="stroke-width:0;stroke:none;fill:rgba(51,51,51,1.0);font-size:12.8px;font-family:'Roboto Medium',sans-serif">32</text><path  d="M 445 138
L 450 138" style="stroke-width:0;stroke:rgba(51,51,51,1.0);fill:none"/><text x="455" y="144" style="stroke-width:0;stroke:none;fill:rgba(51,51,51,1.0);font-size:12.8px;font-family:'Roboto Medium',sans-serif">33</text><path  d="M 445 136
L 450 136" style="stroke-width:0;stroke:rgba(51,51,51,1.0);fill:none"/><text x="455" y="142" style="stroke-width:0;stroke:none;fill:rgba(51,51,51,1.0);font-size:12.8px;font-family:'Roboto Medium',sans-serif">34</text><path  d="M 445 133
L 450 133" style="stroke-width:0;stroke:rgba(51,51,51,1.0);fill:none"/><text x="455" y="139" style="stroke-width:0;stroke:none;fill:rgba(51,51,51,1.0);font-size:12.8px;font-family:'Roboto Medium',sans-serif">35</text><path  d="M 445 131
L 450 131" style="stroke-width:0;stroke:rgba(51,51,51,1.0);fill:none"/><text x="455" y="137" style="stroke-width:0;stroke:none;fill:rgba(51,51,51,1.0);font-size:12.8px;font-family:'Roboto Medium',sans-serif">36</text><path  d="M 445 128
L 450 128" style="stroke-width:0;stroke:rgba(51,51,51,1.0);fill:none"/><text x="455" y="134" style="stroke-width:0;stroke:none;fill:rgba(51,51,51,1.0);font-size:12.8px;font-family:'Roboto Medium',sans-serif">37</text><path  d="M 445 125
L 450 125" style="stroke-width:0;stroke:rgba(51,51,51,1.0);fill:none"/><text x="455" y="131" style="stroke-width:0;stroke:none;fill:rgba(51,51,51,1.0);font-size:12.8px;font-family:'Roboto Medium',sans-serif">38</text><path  d="M 445 123
L 450 123" style="stroke-width:0;stroke:rgba(51,51,51,1.0);fill:none"/><text x="455" y="129" style="stroke-width:0;stroke:none;fill:rgba(51,51,51,1.0);font-size:12.8px;font-family:'Roboto Medium',sans-serif">39</text><path  d="M 445 120
L 450 120" style="stroke-width:0;stroke:rgba(51,51,51,1.0);fill:none"/><text x="455" y="126" style="stroke-width:0;stroke:none;fill:rgba(51,51,51,1.0);font-size:12.8px;font-family:'Roboto Medium',sans-serif">40</text><path  d="M 445 118
L 450 118" style="stroke-width:0;stroke:rgba(51,51,51,1.0);fill:none"/><text x="455" y="124" style="stroke-width:0;stroke:none;fill:rgba(51,51,51,1.0);font-size:12.8px;font-family:'Roboto Medium',sans-serif">41</text><path  d="M 445 115
L 450 115" style="stroke-width:0;stroke:rgba(51,51,51,1.0);fill:none"/><text x="455" y="121" style="stroke-width:0;stroke:none;fill:rgba(51,51,51,1.0);font-size:12.8px;font-family:'Roboto Medium',sans-serif">42</text><path  d="M 445 112
L 450 112" style="stroke-width:0;stroke:rgba(51,51,51,1.0);fill:none"/><text x="455" y="118" style="stroke-width:0;stroke:none;fill:rgba(51,51,51,1.0);font-size:12.8px;font-family:'Roboto Medium',sans-serif">43</text><path  d="M 445 110
L 450 110" style="stroke-width:0;stroke:rgba(51,51,51,1.0);fill:none"/><text x="455" y="116" style="stroke-width:0;stroke:none;fill:rgba(51,51,51,1.0);font-size:12.8px;font-family:'Roboto Medium',sans-serif">44</text><path  d="M 445 107
L 450 107" style="stroke-width:0;stroke:rgba(51,51,51,1.0);fill:none"/><text x="455" y="113" style="stroke-width:0;stroke:none;fill:rgba(51,51,51,1.0);font-size:12.8px;font-family:'Roboto Medium',sans-serif">45</text><path  d="M 445 105
L 450 105" style="stroke-width:0;stroke:rgba(51,51,51,1.0);fill:none"/><text x="455" y="111" style="stroke-width:0;stroke:none;fill:rgba(51,51,51,1.0);font-size:12.8px;font-family:'Roboto Medium',sans-serif">46</text><path  d="M 445 102
L 450 102" style="stroke-width:0;stroke:rgba(51,51,51,1.0);fill:none"/><text x="455" y="108" style="stroke-width:0;stroke:none;fill:rgba(51,51,51,1.0);font-size:12.8px;font-family:'Roboto Medium',sans-serif">47</text><path  d="M 445 99
L 450 99" style="stroke-width:0;stroke:rgba(51,51,51,1.0);fill:none"/><text x="455" y="105" style="stroke-width:0;stroke:none;fill:rgba(51,51,51,1.0);font-size:12.8px;font-family:'Roboto Medium',sans-serif">48</text><path  d="M 445 97
L 450 97" style="stroke-width:0;stroke:rgba(51,51,51,1.0);fill:none"/><text x="455" y="103" style="stroke-width:0;stroke:none;fill:rgba(51,51,51,1.0);font-size:12.8px;font-family:'Roboto Medium',sans-serif">49</text><path  d="M 445 94
L 450 94" style="stroke-width:0;stroke:rgba(51,51,51,1.0);fill:none"/><text x="455" y="100" style="stroke-width:0;stroke:none;fill:rgba(51,51,51,1.0);font-size:12.8px;font-family:'Roboto Medium',sans-serif">50</text><path  d="M 445 92
L 450 92" style="stroke-width:0;stroke:rgba(51,51,51,1.0);fill:none"/><text x="455" y="98" style="stroke-width:0;stroke:none;fill:rgba(51,51,51,1.0);font-size:12.8px;font-family:'Roboto Medium',sans-serif">51</text><path  d="M 445 89
L 450 89" style="stroke-width:0;stroke:rgba(51,51,51,1.0);fill:none"/><text x="455" y="95" style="stroke-width:0;stroke:none;fill:rgba(51,51,51,1.0);font-size:12.8px;font-family:'Roboto Medium',sans-serif">52</text><path  d="M 445 86
L 450 86" style="stroke-width:0;stroke:rgba(51,51,51,1.0);fill:none"/><text x="455" y="92" style="stroke-width:0;stroke:none;fill:rgba(51,51,51,1.0);font-size:12.8px;font-family:'Roboto Medium',sans-serif">53</text><path  d="M 445 84
L 450 84" style="stroke-width:0;stroke:rgba(51,51,51,1.0);fill:none"/><text x="455" y="90" style="stroke-width:0;stroke:none;fill:rgba(51,51,51,1.0);font-size:12.8px;font-family:'Roboto Medium',sans-serif">54</text><path  d="M 445 81
L 450 81" style="stroke-width:0;stroke:rgba(51,51,51,1.0);fill:none"/><text x="455" y="87" style="stroke-width:0;stroke:none;fill:rgba(51,51,51,1.0);font-size:12.8px;font-family:'Roboto Medium',sans-serif">55</text><path  d="M 445 79
L 450 79" style="stroke-width:0;stroke:rgba(51,51,51,1.0);fill:none"/><text x="455" y="85" style="stroke-width:0;stroke:none;fill:rgba(51,51,51,1.0);font-size:12.8px;font-family:'Roboto Medium',sans-serif">56</text><path  d="M 445 76
L 450 76" style="stroke-width:0;stroke:rgba(51,51,51,1.0);fill:none"/><text x="455" y="82" style="stroke-width:0;stroke:none;fill:rgba(51,51,51,1.0);font-size:12.8px;font-family:'Roboto Medium',sans-serif">57</text><path  d="M 445 73
L 450 73" style="stroke-width:0;stroke:rgba(51,51,51,1.0);fill:none"/><text x="455" y="79" style="stroke-width:0;stroke:none;fill:rgba(51,51,51,1.0);font-size:12.8px;font-family:'Roboto Medium',sans-serif">58</text><path  d="M 445 71
L 450 71" style="stroke-width:0;stroke:rgba(51,51,51,1.0);fill:none"/><text x="455" y="77" style="stroke-width:0;stroke:none;fill:rgba(51,51,51,1.0);font-size:12.8px;font-family:'Roboto Medium',sans-serif">59</text><path  d="M 445 68
L 450 68" style="stroke-width:0;stroke:rgba(51,51,51,1.0);fill:none"/><text x="455" y="74" style="stroke-width:0;stroke:none;fill:rgba(51,51,51,1.0);font-size:12.8px;font-family:'Roboto Medium',sans-serif">60</text><path  d="M 445 66
L 450 66" style="stroke-width:0;stroke:rgba(51,51,51,1.0);fill:none"/><text x="455" y="72" style="stroke-width:0;stroke:none;fill:rgba(51,51,51,1.0);font-size:12.8px;font-family:'Roboto Medium',sans-serif">61</text><path  d="M 20 225
L 445 225" style="stroke-width:0;stroke:none;fill:none"/><path  d="M 20 222
L 445 222" style="stroke-width:0;stroke:none;fill:none"/><path  d="M 20 219
L 445 219" style="stroke-width:0;stroke:none;fill:none"/><path  d="M 20 217
L 445 217" style="stroke-width:0;stroke:none;fill:none"/><path  d="M 20 214
L 445 214" style="stroke-width:0;stroke:none;fill:none"/><path  d="M 20 211
L 445 211" style="stroke-width:0;stroke:none;fill:none"/><path  d="M 20 209
L 445 209" style="stroke-width:0;stroke:none;fill:none"/><path  d="M 20 206
L 445 206" style="stroke-width:0;stroke:none;fill:none"/><path  d="M 20 204
L 445 204" style="stroke-width:0;stroke:none;fill:none"/><path  d="M 20 201
L 445 201" style="stroke-width:0;stroke:none;fill:none"/><path  d="M 20 198
L 445 198" style="stroke-width:0;stroke:none;fill:none"/><path  d="M 20 196
L 445 196" style="stroke-width:0;stroke:none;fill:none"/><path  d="M 20 193
L 445 193" style="stroke-width:0;stroke:none;fill:none"/><path  d="M 20 191
L 445 191" style="stroke-width:0;stroke:none;fill:none"/><path  d="M 20 188
L 445 188" style="stroke-width:0;stroke:none;fill:none"/><path  d="M 20 185
L 445 185" style="stroke-width:0;stroke:none;fill:none"/><path  d="M 20 183
L 445 183" style="stroke-width:0;stroke:none;fill:none"/><path  d="M 20 180
L 445 180" style="stroke-width:0;stroke:none;fill:none"/><path  d="M 20 178
L 445 178" style="stroke-width:0;stroke:none;fill:none"/><path  d="M 20 175
L 445 175" style="stroke-width:0;stroke:none;fill:none"/><path  d="M 20 172
L 445 172" style="stroke-width:0;stroke:none;fill:none"/><path  d="M 20 170
L 445 170" style="stroke-width:0;stroke:none;fill:none"/><path  d="M 20 167
L 445 167" style="stroke-width:0;stroke:none;fill:none"/><path  d="M 20 165
L 445 165" style="stroke-width:0;stroke:none;fill:none"/><path  d="M 20 162
L 445 162" style="stroke-width:0;stroke:none;fill:none"/><path  d="M 20 159
L 445 159" style="stroke-width:0;stroke:none;fill:none"/><path  d="M 20 157
L 445 157" style="stroke-width:0;stroke:none;fill:none"/><path  d="M 20 154
L 445 154" style="stroke-width:0;stroke:none;fill:none"/><path  d="M 20 152
L 445 152" style="stroke-width:0;stroke:none;fill:none"/><path  d="M 20 149
L 445 149" style="stroke-width:0;stroke:none;fill:none"/><path  d="M 20 146
L 445 146" style="stroke-width:0;stroke:none;fill:none"/><path  d="M 20 144
L 445 144" style="stroke-width:0;stroke:none;fill:none"/><path  d="M 20 141
L 445 141" style="stroke-width:0;stroke:none;fill:none"/><path  d="M 20 138
L 445 138" style="stroke-width:0;stroke:none;fill:none"/><path  d="M 20 136
L 445 136" style="stroke-width:0;stroke:none;fill:none"/><path  d="M 20 133
L 445 133" style="stroke-width:0;stroke:none;fill:none"/><path  d="M 20 131
L 445 131" style="stroke-width:0;stroke:none;fill:none"/><path  d="M 20 128
L 445 128" style="stroke-width:0;stroke:none;fill:none"/><path  d="M 20 125
L 445 125" style="stroke-width:0;stroke:none;fill:none"/><path  d="M 20 123
L 445 123" style="stroke-width:0;stroke:none;fill:none"/><path  d="M 20 120
L 445 120" style="stroke-width:0;stroke:none;fill:none"/><path  d="M 20 118
L 445 118" style="stroke-width:0;stroke:none;fill:none"/><path  d="M 20 115
L 445 115" style="stroke-width:0;stroke:none;fill:none"/><path  d="M 20 112
L 445 112" style="stroke-width:0;stroke:none;fill:none"/><path  d="M 20 110
L 445 110" style="stroke-width:0;stroke:none;fill:none"/><path  d="M 20 107
L 445 107" style="stroke-width:0;stroke:none;fill:none"/><path  d="M 20 105
L 445 105" style="stroke-width:0;stroke:none;fill:none"/><path  d="M 20 102
L 445 102" style="stroke-width:0;stroke:none;fill:none"/><path  d="M 20 99
L 445 99" style="stroke-width:0;stroke:none;fill:none"/><path  d="M 20 97
L 445 97" style="stroke-width:0;stroke:none;fill:none"/><path  d="M 20 94
L 445 94" style="stroke-width:0;stroke:none;fill:none"/><path  d="M 20 92
L 445 92" style="stroke-width:0;stroke:none;fill:none"/><path  d="M 20 89
L 445 89" style="stroke-width:0;stroke:none;fill:none"/><path  d="M 20 86
L 445 86" style="stroke-width:0;stroke:none;fill:none"/><path  d="M 20 84
L 445 84" style="stroke-width:0;stroke:none;fill:none"/><path  d="M 20 81
L 445 81" style="stroke-width:0;stroke:none;fill:none"/><path  d="M 20 79
L 445 79" style="stroke-width:0;stroke:none;fill:none"/><path  d="M 20 76
L 445 76" style="stroke-width:0;stroke:none;fill:none"/><path  d="M 20 73
L 445 73" style="stroke-width:0;stroke:none;fill:none"/><path  d="M 20 71
L 445 71" style="stroke-width:0;stroke:none;fill:none"/><path  d="M 20 68
L 445 68" style="stroke-width:0;stroke:none;fill:none"/><text x="169" y="25" style="stroke-width:0;stroke:none;fill:rgba(51,51,51,1.0);font-size:15.3px;font-family:'Roboto Medium',sans-serif">Models per Category</text></svg>