<svg xmlns="http://www.w3.org/2000/svg" xmlns:xlink="http://www.w3.org/1999/xlink" width="540" height="300">\n<path  d="M 0 0
L 540 0
L 540 300
L 0 300
L 0 0" style="stroke-width:0;stroke:rgba(255,255,255,1.0);fill:rgba(255,255,255,1.0)"/><path  d="M 20 66
L 505 66
L 505 225
L 20 225
L 20 66" style="stroke-width:0;stroke:rgba(255,255,255,1.0);fill:rgba(255,255,255,1.0)"/><path  d="M 25 202
L 85 202
L 85 225
L 25 225
L 25 202" style="stroke-width:3;stroke:rgba(106,195,203,1.0);fill:rgba(106,195,203,1.0)"/><path  d="M 95 222
L 155 222
L 155 225
L 95 225
L 95 222" style="stroke-width:3;stroke:rgba(42,190,137,1.0);fill:rgba(42,190,137,1.0)"/><path  d="M 165 155
L 225 155
L 225 225
L 165 225
L 165 155" style="stroke-width:3;stroke:rgba(110,128,139,1.0);fill:rgba(110,128,139,1.0)"/><path  d="M 235 66
L 295 66
L 295 225
L 235 225
L 235 66" style="stroke-width:3;stroke:rgba(240,174,90,1.0);fill:rgba(240,174,90,1.0)"/><path  d="M 305 222
L 365 222
L 365 225
L 305 225
L 305 222" style="stroke-width:3;stroke:rgba(0,116,217,1.0);fill:rgba(0,116,217,1.0)"/><path  d="M 375 167
L 435 167
L 435 225
L 375 225
L 375 167" style="stroke-width:3;stroke:rgba(0,217,101,1.0);fill:rgba(0,217,101,1.0)"/><path  d="M 445 192
L 505 192
L 505 225
L 445 225
L 445 192" style="stroke-width:3;stroke:rgba(217,0,116,1.0);fill:rgba(217,0,116,1.0)"/><path  d="M 20 225
L 505 225" style="stroke-width:0;stroke:rgba(51,51,51,1.0);fill:none"/><path  d="M 20 225
L 20 230" style="stroke-width:0;stroke:rgba(51,51,51,1.0);fill:none"/><text x="26" y="247" style="stroke-width:0;stroke:none;fill:rgba(51,51,51,1.0);font-size:12.8px;font-family:'Roboto Medium',sans-serif">Response</text><text x="40" y="264" style="stroke-width:0;stroke:none;fill:rgba(51,51,51,1.0);font-size:12.8px;font-family:'Roboto Medium',sans-serif">Error</text><path  d="M 90 225
L 90 230" style="stroke-width:0;stroke:rgba(51,51,51,1.0);fill:none"/><text x="96" y="247" style="stroke-width:0;stroke:none;fill:rgba(51,51,51,1.0);font-size:12.8px;font-family:'Roboto Medium',sans-serif">Response</text><text x="106" y="264" style="stroke-width:0;stroke:none;fill:rgba(51,51,51,1.0);font-size:12.8px;font-family:'Roboto Medium',sans-serif">Empty</text><path  d="M 160 225
L 160 230" style="stroke-width:0;stroke:rgba(51,51,51,1.0);fill:none"/><text x="170" y="247" style="stroke-width:0;stroke:none;fill:rgba(51,51,51,1.0);font-size:12.8px;font-family:'Roboto Medium',sans-serif">No Code</text><path  d="M 230 225
L 230 230" style="stroke-width:0;stroke:rgba(51,51,51,1.0);fill:none"/><text x="246" y="247" style="stroke-width:0;stroke:none;fill:rgba(51,51,51,1.0);font-size:12.8px;font-family:'Roboto Medium',sans-serif">Invalid</text><text x="250" y="264" style="stroke-width:0;stroke:none;fill:rgba(51,51,51,1.0);font-size:12.8px;font-family:'Roboto Medium',sans-serif">Code</text><path  d="M 300 225
L 300 230" style="stroke-width:0;stroke:rgba(51,51,51,1.0);fill:none"/><text x="303" y="247" style="stroke-width:0;stroke:none;fill:rgba(51,51,51,1.0);font-size:12.8px;font-family:'Roboto Medium',sans-serif">Executable</text><text x="320" y="264" style="stroke-width:0;stroke:none;fill:rgba(51,51,51,1.0);font-size:12.8px;font-family:'Roboto Medium',sans-serif">Code</text><path  d="M 370 225
L 370 230" style="stroke-width:0;stroke:rgba(51,51,51,1.0);fill:none"/><text x="375" y="247" style="stroke-width:0;stroke:none;fill:rgba(51,51,51,1.0);font-size:12.8px;font-family:'Roboto Medium',sans-serif">Statement</text><text x="377" y="264" style="stroke-width:0;stroke:none;fill:rgba(51,51,51,1.0);font-size:12.8px;font-family:'Roboto Medium',sans-serif">Coverage</text><text x="380" y="281" style="stroke-width:0;stroke:none;fill:rgba(51,51,51,1.0);font-size:12.8px;font-family:'Roboto Medium',sans-serif">Reached</text><path  d="M 440 225
L 440 230" style="stroke-width:0;stroke:rgba(51,51,51,1.0);fill:none"/><text x="445" y="247" style="stroke-width:0;stroke:none;fill:rgba(51,51,51,1.0);font-size:12.8px;font-family:'Roboto Medium',sans-serif">No Excess</text><text x="446" y="264" style="stroke-width:0;stroke:none;fill:rgba(51,51,51,1.0);font-size:12.8px;font-family:'Roboto Medium',sans-serif">Response</text><path  d="M 505 225
L 505 66" style="stroke-width:0;stroke:rgba(51,51,51,1.0);fill:none"/><path  d="M 505 225
L 510 225" style="stroke-width:0;stroke:rgba(51,51,51,1.0);fill:none"/><text x="515" y="231" style="stroke-width:0;stroke:none;fill:rgba(51,51,51,1.0);font-size:12.8px;font-family:'Roboto Medium',sans-serif">0</text><path  d="M 505 222
L 510 222" style="stroke-width:0;stroke:rgba(51,51,51,1.0);fill:none"/><text x="515" y="228" style="stroke-width:0;stroke:none;fill:rgba(51,51,51,1.0);font-size:12.8px;font-family:'Roboto Medium',sans-serif">1</text><path  d="M 505 220
L 510 220" style="stroke-width:0;stroke:rgba(51,51,51,1.0);fill:none"/><text x="515" y="226" style="stroke-width:0;stroke:none;fill:rgba(51,51,51,1.0);font-size:12.8px;font-family:'Roboto Medium',sans-serif">2</text><path  d="M 505 217
L 510 217" style="stroke-width:0;stroke:rgba(51,51,51,1.0);fill:none"/><text x="515" y="223" style="stroke-width:0;stroke:none;fill:rgba(51,51,51,1.0);font-size:12.8px;font-family:'Roboto Medium',sans-serif">3</text><path  d="M 505 215
L 510 215" style="stroke-width:0;stroke:rgba(51,51,51,1.0);fill:none"/><text x="515" y="221" style="stroke-width:0;stroke:none;fill:rgba(51,51,51,1.0);font-size:12.8px;font-family:'Roboto Medium',sans-serif">4</text><path  d="M 505 212
L 510 212" style="stroke-width:0;stroke:rgba(51,51,51,1.0);fill:none"/><text x="515" y="218" style="stroke-width:0;stroke:none;fill:rgba(51,51,51,1.0);font-size:12.8px;font-family:'Roboto Medium',sans-serif">5</text><path  d="M 505 210
L 510 210" style="stroke-width:0;stroke:rgba(51,51,51,1.0);fill:none"/><text x="515" y="216" style="stroke-width:0;stroke:none;fill:rgba(51,51,51,1.0);font-size:12.8px;font-family:'Roboto Medium',sans-serif">6</text><path  d="M 505 207
L 510 207" style="stroke-width:0;stroke:rgba(51,51,51,1.0);fill:none"/><text x="515" y="213" style="stroke-width:0;stroke:none;fill:rgba(51,51,51,1.0);font-size:12.8px;font-family:'Roboto Medium',sans-serif">7</text><path  d="M 505 205
L 510 205" style="stroke-width:0;stroke:rgba(51,51,51,1.0);fill:none"/><text x="515" y="211" style="stroke-width:0;stroke:none;fill:rgba(51,51,51,1.0);font-size:12.8px;font-family:'Roboto Medium',sans-serif">8</text><path  d="M 505 202
L 510 202" style="stroke-width:0;stroke:rgba(51,51,51,1.0);fill:none"/><text x="515" y="208" style="stroke-width:0;stroke:none;fill:rgba(51,51,51,1.0);font-size:12.8px;font-family:'Roboto Medium',sans-serif">9</text><path  d="M 505 200
L 510 200" style="stroke-width:0;stroke:rgba(51,51,51,1.0);fill:none"/><text x="515" y="206" style="stroke-width:0;stroke:none;fill:rgba(51,51,51,1.0);font-size:12.8px;font-family:'Roboto Medium',sans-serif">10</text><path  d="M 505 197
L 510 197" style="stroke-width:0;stroke:rgba(51,51,51,1.0);fill:none"/><text x="515" y="203" style="stroke-width:0;stroke:none;fill:rgba(51,51,51,1.0);font-size:12.8px;font-family:'Roboto Medium',sans-serif">11</text><path  d="M 505 195
L 510 195" style="stroke-width:0;stroke:rgba(51,51,51,1.0);fill:none"/><text x="515" y="201" style="stroke-width:0;stroke:none;fill:rgba(51,51,51,1.0);font-size:12.8px;font-family:'Roboto Medium',sans-serif">12</text><path  d="M 505 192
L 510 192" style="stroke-width:0;stroke:rgba(51,51,51,1.0);fill:none"/><text x="515" y="198" style="stroke-width:0;stroke:none;fill:rgba(51,51,51,1.0);font-size:12.8px;font-family:'Roboto Medium',sans-serif">13</text><path  d="M 505 190
L 510 190" style="stroke-width:0;stroke:rgba(51,51,51,1.0);fill:none"/><text x="515" y="196" style="stroke-width:0;stroke:none;fill:rgba(51,51,51,1.0);font-size:12.8px;font-family:'Roboto Medium',sans-serif">14</text><path  d="M 505 187
L 510 187" style="stroke-width:0;stroke:rgba(51,51,51,1.0);fill:none"/><text x="515" y="193" style="stroke-width:0;stroke:none;fill:rgba(51,51,51,1.0);font-size:12.8px;font-family:'Roboto Medium',sans-serif">15</text><path  d="M 505 185
L 510 185" style="stroke-width:0;stroke:rgba(51,51,51,1.0);fill:none"/><text x="515" y="191" style="stroke-width:0;stroke:none;fill:rgba(51,51,51,1.0);font-size:12.8px;font-family:'Roboto Medium',sans-serif">16</text><path  d="M 505 182
L 510 182" style="stroke-width:0;stroke:rgba(51,51,51,1.0);fill:none"/><text x="515" y="188" style="stroke-width:0;stroke:none;fill:rgba(51,51,51,1.0);font-size:12.8px;font-family:'Roboto Medium',sans-serif">17</text><path  d="M 505 180
L 510 180" style="stroke-width:0;stroke:rgba(51,51,51,1.0);fill:none"/><text x="515" y="186" style="stroke-width:0;stroke:none;fill:rgba(51,51,51,1.0);font-size:12.8px;font-family:'Roboto Medium',sans-serif">18</text><path  d="M 505 177
L 510 177" style="stroke-width:0;stroke:rgba(51,51,51,1.0);fill:none"/><text x="515" y="183" style="stroke-width:0;stroke:none;fill:rgba(51,51,51,1.0);font-size:12.8px;font-family:'Roboto Medium',sans-serif">19</text><path  d="M 505 175
L 510 175" style="stroke-width:0;stroke:rgba(51,51,51,1.0);fill:none"/><text x="515" y="181" style="stroke-width:0;stroke:none;fill:rgba(51,51,51,1.0);font-size:12.8px;font-family:'Roboto Medium',sans-serif">20</text><path  d="M 505 172
L 510 172" style="stroke-width:0;stroke:rgba(51,51,51,1.0);fill:none"/><text x="515" y="178" style="stroke-width:0;stroke:none;fill:rgba(51,51,51,1.0);font-size:12.8px;font-family:'Roboto Medium',sans-serif">21</text><path  d="M 505 170
L 510 170" style="stroke-width:0;stroke:rgba(51,51,51,1.0);fill:none"/><text x="515" y="176" style="stroke-width:0;stroke:none;fill:rgba(51,51,51,1.0);font-size:12.8px;font-family:'Roboto Medium',sans-serif">22</text><path  d="M 505 167
L 510 167" style="stroke-width:0;stroke:rgba(51,51,51,1.0);fill:none"/><text x="515" y="173" style="stroke-width:0;stroke:none;fill:rgba(51,51,51,1.0);font-size:12.8px;font-family:'Roboto Medium',sans-serif">23</text><path  d="M 505 165
L 510 165" style="stroke-width:0;stroke:rgba(51,51,51,1.0);fill:none"/><text x="515" y="171" style="stroke-width:0;stroke:none;fill:rgba(51,51,51,1.0);font-size:12.8px;font-family:'Roboto Medium',sans-serif">24</text><path  d="M 505 162
L 510 162" style="stroke-width:0;stroke:rgba(51,51,51,1.0);fill:none"/><text x="515" y="168" style="stroke-width:0;stroke:none;fill:rgba(51,51,51,1.0);font-size:12.8px;font-family:'Roboto Medium',sans-serif">25</text><path  d="M 505 160
L 510 160" style="stroke-width:0;stroke:rgba(51,51,51,1.0);fill:none"/><text x="515" y="166" style="stroke-width:0;stroke:none;fill:rgba(51,51,51,1.0);font-size:12.8px;font-family:'Roboto Medium',sans-serif">26</text><path  d="M 505 157
L 510 157" style="stroke-width:0;stroke:rgba(51,51,51,1.0);fill:none"/><text x="515" y="163" style="stroke-width:0;stroke:none;fill:rgba(51,51,51,1.0);font-size:12.8px;font-family:'Roboto Medium',sans-serif">27</text><path  d="M 505 155
L 510 155" style="stroke-width:0;stroke:rgba(51,51,51,1.0);fill:none"/><text x="515" y="161" style="stroke-width:0;stroke:none;fill:rgba(51,51,51,1.0);font-size:12.8px;font-family:'Roboto Medium',sans-serif">28</text><path  d="M 505 152
L 510 152" style="stroke-width:0;stroke:rgba(51,51,51,1.0);fill:none"/><text x="515" y="158" style="stroke-width:0;stroke:none;fill:rgba(51,51,51,1.0);font-size:12.8px;font-family:'Roboto Medium',sans-serif">29</text><path  d="M 505 150
L 510 150" style="stroke-width:0;stroke:rgba(51,51,51,1.0);fill:none"/><text x="515" y="156" style="stroke-width:0;stroke:none;fill:rgba(51,51,51,1.0);font-size:12.8px;font-family:'Roboto Medium',sans-serif">30</text><path  d="M 505 147
L 510 147" style="stroke-width:0;stroke:rgba(51,51,51,1.0);fill:none"/><text x="515" y="153" style="stroke-width:0;stroke:none;fill:rgba(51,51,51,1.0);font-size:12.8px;font-family:'Roboto Medium',sans-serif">31</text><path  d="M 505 145
L 510 145" style="stroke-width:0;stroke:rgba(51,51,51,1.0);fill:none"/><text x="515" y="151" style="stroke-width:0;stroke:none;fill:rgba(51,51,51,1.0);font-size:12.8px;font-family:'Roboto Medium',sans-serif">32</text><path  d="M 505 143
L 510 143" style="stroke-width:0;stroke:rgba(51,51,51,1.0);fill:none"/><text x="515" y="149" style="stroke-width:0;stroke:none;fill:rgba(51,51,51,1.0);font-size:12.8px;font-family:'Roboto Medium',sans-serif">33</text><path  d="M 505 140
L 510 140" style="stroke-width:0;stroke:rgba(51,51,51,1.0);fill:none"/><text x="515" y="146" style="stroke-width:0;stroke:none;fill:rgba(51,51,51,1.0);font-size:12.8px;font-family:'Roboto Medium',sans-serif">34</text><path  d="M 505 138
L 510 138" style="stroke-width:0;stroke:rgba(51,51,51,1.0);fill:none"/><text x="515" y="144" style="stroke-width:0;stroke:none;fill:rgba(51,51,51,1.0);font-size:12.8px;font-family:'Roboto Medium',sans-serif">35</text><path  d="M 505 135
L 510 135" style="stroke-width:0;stroke:rgba(51,51,51,1.0);fill:none"/><text x="515" y="141" style="stroke-width:0;stroke:none;fill:rgba(51,51,51,1.0);font-size:12.8px;font-family:'Roboto Medium',sans-serif">36</text><path  d="M 505 133
L 510 133" style="stroke-width:0;stroke:rgba(51,51,51,1.0);fill:none"/><text x="515" y="139" style="stroke-width:0;stroke:none;fill:rgba(51,51,51,1.0);font-size:12.8px;font-family:'Roboto Medium',sans-serif">37</text><path  d="M 505 130
L 510 130" style="stroke-width:0;stroke:rgba(51,51,51,1.0);fill:none"/><text x="515" y="136" style="stroke-width:0;stroke:none;fill:rgba(51,51,51,1.0);font-size:12.8px;font-family:'Roboto Medium',sans-serif">38</text><path  d="M 505 128
L 510 128" style="stroke-width:0;stroke:rgba(51,51,51,1.0);fill:none"/><text x="515" y="134" style="stroke-width:0;stroke:none;fill:rgba(51,51,51,1.0);font-size:12.8px;font-family:'Roboto Medium',sans-serif">39</text><path  d="M 505 125
L 510 125" style="stroke-width:0;stroke:rgba(51,51,51,1.0);fill:none"/><text x="515" y="131" style="stroke-width:0;stroke:none;fill:rgba(51,51,51,1.0);font-size:12.8px;font-family:'Roboto Medium',sans-serif">40</text><path  d="M 505 123
L 510 123" style="stroke-width:0;stroke:rgba(51,51,51,1.0);fill:none"/><text x="515" y="129" style="stroke-width:0;stroke:none;fill:rgba(51,51,51,1.0);font-size:12.8px;font-family:'Roboto Medium',sans-serif">41</text><path  d="M 505 120
L 510 120" style="stroke-width:0;stroke:rgba(51,51,51,1.0);fill:none"/><text x="515" y="126" style="stroke-width:0;stroke:none;fill:rgba(51,51,51,1.0);font-size:12.8px;font-family:'Roboto Medium',sans-serif">42</text><path  d="M 505 118
L 510 118" style="stroke-width:0;stroke:rgba(51,51,51,1.0);fill:none"/><text x="515" y="124" style="stroke-width:0;stroke:none;fill:rgba(51,51,51,1.0);font-size:12.8px;font-family:'Roboto Medium',sans-serif">43</text><path  d="M 505 115
L 510 115" style="stroke-width:0;stroke:rgba(51,51,51,1.0);fill:none"/><text x="515" y="121" style="stroke-width:0;stroke:none;fill:rgba(51,51,51,1.0);font-size:12.8px;font-family:'Roboto Medium',sans-serif">44</text><path  d="M 505 113
L 510 113" style="stroke-width:0;stroke:rgba(51,51,51,1.0);fill:none"/><text x="515" y="119" style="stroke-width:0;stroke:none;fill:rgba(51,51,51,1.0);font-size:12.8px;font-family:'Roboto Medium',sans-serif">45</text><path  d="M 505 110
L 510 110" style="stroke-width:0;stroke:rgba(51,51,51,1.0);fill:none"/><text x="515" y="116" style="stroke-width:0;stroke:none;fill:rgba(51,51,51,1.0);font-size:12.8px;font-family:'Roboto Medium',sans-serif">46</text><path  d="M 505 108
L 510 108" style="stroke-width:0;stroke:rgba(51,51,51,1.0);fill:none"/><text x="515" y="114" style="stroke-width:0;stroke:none;fill:rgba(51,51,51,1.0);font-size:12.8px;font-family:'Roboto Medium',sans-serif">47</text><path  d="M 505 105
L 510 105" style="stroke-width:0;stroke:rgba(51,51,51,1.0);fill:none"/><text x="515" y="111" style="stroke-width:0;stroke:none;fill:rgba(51,51,51,1.0);font-size:12.8px;font-family:'Roboto Medium',sans-serif">48</text><path  d="M 505 103
L 510 103" style="stroke-width:0;stroke:rgba(51,51,51,1.0);fill:none"/><text x="515" y="109" style="stroke-width:0;stroke:none;fill:rgba(51,51,51,1.0);font-size:12.8px;font-family:'Roboto Medium',sans-serif">49</text><path  d="M 505 100
L 510 100" style="stroke-width:0;stroke:rgba(51,51,51,1.0);fill:none"/><text x="515" y="106" style="stroke-width:0;stroke:none;fill:rgba(51,51,51,1.0);font-size:12.8px;font-family:'Roboto Medium',sans-serif">50</text><path  d="M 505 98
L 510 98" style="stroke-width:0;stroke:rgba(51,51,51,1.0);fill:none"/><text x="515" y="104" style="stroke-width:0;stroke:none;fill:rgba(51,51,51,1.0);font-size:12.8px;font-family:'Roboto Medium',sans-serif">51</text><path  d="M 505 95
L 510 95" style="stroke-width:0;stroke:rgba(51,51,51,1.0);fill:none"/><text x="515" y="101" style="stroke-width:0;stroke:none;fill:rgba(51,51,51,1.0);font-size:12.8px;font-family:'Roboto Medium',sans-serif">52</text><path  d="M 505 93
L 510 93" style="stroke-width:0;stroke:rgba(51,51,51,1.0);fill:none"/><text x="515" y="99" style="stroke-width:0;stroke:none;fill:rgba(51,51,51,1.0);font-size:12.8px;font-family:'Roboto Medium',sans-serif">53</text><path  d="M 505 90
L 510 90" style="stroke-width:0;stroke:rgba(51,51,51,1.0);fill:none"/><text x="515" y="96" style="stroke-width:0;stroke:none;fill:rgba(51,51,51,1.0);font-size:12.8px;font-family:'Roboto Medium',sans-serif">54</text><path  d="M 505 88
L 510 88" style="stroke-width:0;stroke:rgba(51,51,51,1.0);fill:none"/><text x="515" y="94" style="stroke-width:0;stroke:none;fill:rgba(51,51,51,1.0);font-size:12.8px;font-family:'Roboto Medium',sans-serif">55</text><path  d="M 505 85
L 510 85" style="stroke-width:0;stroke:rgba(51,51,51,1.0);fill:none"/><text x="515" y="91" style="stroke-width:0;stroke:none;fill:rgba(51,51,51,1.0);font-size:12.8px;font-family:'Roboto Medium',sans-serif">56</text><path  d="M 505 83
L 510 83" style="stroke-width:0;stroke:rgba(51,51,51,1.0);fill:none"/><text x="515" y="89" style="stroke-width:0;stroke:none;fill:rgba(51,51,51,1.0);font-size:12.8px;font-family:'Roboto Medium',sans-serif">57</text><path  d="M 505 80
L 510 80" style="stroke-width:0;stroke:rgba(51,51,51,1.0);fill:none"/><text x="515" y="86" style="stroke-width:0;stroke:none;fill:rgba(51,51,51,1.0);font-size:12.8px;font-family:'Roboto Medium',sans-serif">58</text><path  d="M 505 78
L 510 78" style="stroke-width:0;stroke:rgba(51,51,51,1.0);fill:none"/><text x="515" y="84" style="stroke-width:0;stroke:none;fill:rgba(51,51,51,1.0);font-size:12.8px;font-family:'Roboto Medium',sans-serif">59</text><path  d="M 505 75
L 510 75" style="stroke-width:0;stroke:rgba(51,51,51,1.0);fill:none"/><text x="515" y="81" style="stroke-width:0;stroke:none;fill:rgba(51,51,51,1.0);font-size:12.8px;font-family:'Roboto Medium',sans-serif">60</text><path  d="M 505 73
L 510 73" style="stroke-width:0;stroke:rgba(51,51,51,1.0);fill:none"/><text x="515" y="79" style="stroke-width:0;stroke:none;fill:rgba(51,51,51,1.0);font-size:12.8px;font-family:'Roboto Medium',sans-serif">61</text><path  d="M 505 70
L 510 70" style="stroke-width:0;stroke:rgba(51,51,51,1.0);fill:none"/><text x="515" y="76" style="stroke-width:0;stroke:none;fill:rgba(51,51,51,1.0);font-size:12.8px;font-family:'Roboto Medium',sans-serif">62</text><path  d="M 505 68
L 510 68" style="stroke-width:0;stroke:rgba(51,51,51,1.0);fill:none"/><text x="515" y="74" style="stroke-width:0;stroke:none;fill:rgba(51,51,51,1.0);font-size:12.8px;font-family:'Roboto Medium',sans-serif">63</text><path  d="M 505 66
L 510 66" style="stroke-width:0;stroke:rgba(51,51,51,1.0);fill:none"/><text x="515" y="72" style="stroke-width:0;stroke:none;fill:rgba(51,51,51,1.0);font-size:12.8px;font-family:'Roboto Medium',sans-serif">64</text><path  d="M 20 225
L 505 225" style="stroke-width:0;stroke:none;fill:none"/><path  d="M 20 222
L 505 222" style="stroke-width:0;stroke:none;fill:none"/><path  d="M 20 220
L 505 220" style="stroke-width:0;stroke:none;fill:none"/><path  d="M 20 217
L 505 217" style="stroke-width:0;stroke:none;fill:none"/><path  d="M 20 215
L 505 215" style="stroke-width:0;stroke:none;fill:none"/><path  d="M 20 212
L 505 212" style="stroke-width:0;stroke:none;fill:none"/><path  d="M 20 210
L 505 210" style="stroke-width:0;stroke:none;fill:none"/><path  d="M 20 207
L 505 207" style="stroke-width:0;stroke:none;fill:none"/><path  d="M 20 205
L 505 205" style="stroke-width:0;stroke:none;fill:none"/><path  d="M 20 202
L 505 202" style="stroke-width:0;stroke:none;fill:none"/><path  d="M 20 200
L 505 200" style="stroke-width:0;stroke:none;fill:none"/><path  d="M 20 197
L 505 197" style="stroke-width:0;stroke:none;fill:none"/><path  d="M 20 195
L 505 195" style="stroke-width:0;stroke:none;fill:none"/><path  d="M 20 192
L 505 192" style="stroke-width:0;stroke:none;fill:none"/><path  d="M 20 190
L 505 190" style="stroke-width:0;stroke:none;fill:none"/><path  d="M 20 187
L 505 187" style="stroke-width:0;stroke:none;fill:none"/><path  d="M 20 185
L 505 185" style="stroke-width:0;stroke:none;fill:none"/><path  d="M 20 182
L 505 182" style="stroke-width:0;stroke:none;fill:none"/><path  d="M 20 180
L 505 180" style="stroke-width:0;stroke:none;fill:none"/><path  d="M 20 177
L 505 177" style="stroke-width:0;stroke:none;fill:none"/><path  d="M 20 175
L 505 175" style="stroke-width:0;stroke:none;fill:none"/><path  d="M 20 172
L 505 172" style="stroke-width:0;stroke:none;fill:none"/><path  d="M 20 170
L 505 170" style="stroke-width:0;stroke:none;fill:none"/><path  d="M 20 167
L 505 167" style="stroke-width:0;stroke:none;fill:none"/><path  d="M 20 165
L 505 165" style="stroke-width:0;stroke:none;fill:none"/><path  d="M 20 162
L 505 162" style="stroke-width:0;stroke:none;fill:none"/><path  d="M 20 160
L 505 160" style="stroke-width:0;stroke:none;fill:none"/><path  d="M 20 157
L 505 157" style="stroke-width:0;stroke:none;fill:none"/><path  d="M 20 155
L 505 155" style="stroke-width:0;stroke:none;fill:none"/><path  d="M 20 152
L 505 152" style="stroke-width:0;stroke:none;fill:none"/><path  d="M 20 150
L 505 150" style="stroke-width:0;stroke:none;fill:none"/><path  d="M 20 147
L 505 147" style="stroke-width:0;stroke:none;fill:none"/><path  d="M 20 145
L 505 145" style="stroke-width:0;stroke:none;fill:none"/><path  d="M 20 143
L 505 143" style="stroke-width:0;stroke:none;fill:none"/><path  d="M 20 140
L 505 140" style="stroke-width:0;stroke:none;fill:none"/><path  d="M 20 138
L 505 138" style="stroke-width:0;stroke:none;fill:none"/><path  d="M 20 135
L 505 135" style="stroke-width:0;stroke:none;fill:none"/><path  d="M 20 133
L 505 133" style="stroke-width:0;stroke:none;fill:none"/><path  d="M 20 130
L 505 130" style="stroke-width:0;stroke:none;fill:none"/><path  d="M 20 128
L 505 128" style="stroke-width:0;stroke:none;fill:none"/><path  d="M 20 125
L 505 125" style="stroke-width:0;stroke:none;fill:none"/><path  d="M 20 123
L 505 123" style="stroke-width:0;stroke:none;fill:none"/><path  d="M 20 120
L 505 120" style="stroke-width:0;stroke:none;fill:none"/><path  d="M 20 118
L 505 118" style="stroke-width:0;stroke:none;fill:none"/><path  d="M 20 115
L 505 115" style="stroke-width:0;stroke:none;fill:none"/><path  d="M 20 113
L 505 113" style="stroke-width:0;stroke:none;fill:none"/><path  d="M 20 110
L 505 110" style="stroke-width:0;stroke:none;fill:none"/><path  d="M 20 108
L 505 108" style="stroke-width:0;stroke:none;fill:none"/><path  d="M 20 105
L 505 105" style="stroke-width:0;stroke:none;fill:none"/><path  d="M 20 103
L 505 103" style="stroke-width:0;stroke:none;fill:none"/><path  d="M 20 100
L 505 100" style="stroke-width:0;stroke:none;fill:none"/><path  d="M 20 98
L 505 98" style="stroke-width:0;stroke:none;fill:none"/><path  d="M 20 95
L 505 95" style="stroke-width:0;stroke:none;fill:none"/><path  d="M 20 93
L 505 93" style="stroke-width:0;stroke:none;fill:none"/><path  d="M 20 90
L 505 90" style="stroke-width:0;stroke:none;fill:none"/><path  d="M 20 88
L 505 88" style="stroke-width:0;stroke:none;fill:none"/><path  d="M 20 85
L 505 85" style="stroke-width:0;stroke:none;fill:none"/><path  d="M 20 83
L 505 83" style="stroke-width:0;stroke:none;fill:none"/><path  d="M 20 80
L 505 80" style="stroke-width:0;stroke:none;fill:none"/><path  d="M 20 78
L 505 78" style="stroke-width:0;stroke:none;fill:none"/><path  d="M 20 75
L 505 75" style="stroke-width:0;stroke:none;fill:none"/><path  d="M 20 73
L 505 73" style="stroke-width:0;stroke:none;fill:none"/><path  d="M 20 70
L 505 70" style="stroke-width:0;stroke:none;fill:none"/><path  d="M 20 68
L 505 68" style="stroke-width:0;stroke:none;fill:none"/><text x="199" y="25" style="stroke-width:0;stroke:none;fill:rgba(51,51,51,1.0);font-size:15.3px;font-family:'Roboto Medium',sans-serif">Models per Category</text></svg>