<svg xmlns="http://www.w3.org/2000/svg" xmlns:xlink="http://www.w3.org/1999/xlink" width="480" height="300">\n<path  d="M 0 0
L 480 0
L 480 300
L 0 300
L 0 0" style="stroke-width:0;stroke:rgba(255,255,255,1.0);fill:rgba(255,255,255,1.0)"/><path  d="M 20 66
L 445 66
L 445 225
L 20 225
L 20 66" style="stroke-width:0;stroke:rgba(255,255,255,1.0);fill:rgba(255,255,255,1.0)"/><path  d="M 25 206
L 85 206
L 85 225
L 25 225
L 25 206" style="stroke-width:3;stroke:rgba(106,195,203,1.0);fill:rgba(106,195,203,1.0)"/><path  d="M 96 167
L 156 167
L 156 225
L 96 225
L 96 167" style="stroke-width:3;stroke:rgba(42,190,137,1.0);fill:rgba(42,190,137,1.0)"/><path  d="M 167 66
L 227 66
L 227 225
L 167 225
L 167 66" style="stroke-width:3;stroke:rgba(110,128,139,1.0);fill:rgba(110,128,139,1.0)"/><path  d="M 238 215
L 298 215
L 298 225
L 238 225
L 238 215" style="stroke-width:3;stroke:rgba(240,174,90,1.0);fill:rgba(240,174,90,1.0)"/><path  d="M 309 178
L 369 178
L 369 225
L 309 225
L 309 178" style="stroke-width:3;stroke:rgba(0,116,217,1.0);fill:rgba(0,116,217,1.0)"/><path  d="M 380 192
L 440 192
L 440 225
L 380 225
L 380 192" style="stroke-width:3;stroke:rgba(0,217,101,1.0);fill:rgba(0,217,101,1.0)"/><path  d="M 20 225
L 445 225" style="stroke-width:0;stroke:rgba(51,51,51,1.0);fill:none"/><path  d="M 20 225
L 20 230" style="stroke-width:0;stroke:rgba(51,51,51,1.0);fill:none"/><text x="27" y="247" style="stroke-width:0;stroke:none;fill:rgba(51,51,51,1.0);font-size:12.8px;font-family:'Roboto Medium',sans-serif">Response</text><text x="41" y="264" style="stroke-width:0;stroke:none;fill:rgba(51,51,51,1.0);font-size:12.8px;font-family:'Roboto Medium',sans-serif">Error</text><path  d="M 91 225
L 91 230" style="stroke-width:0;stroke:rgba(51,51,51,1.0);fill:none"/><text x="101" y="247" style="stroke-width:0;stroke:none;fill:rgba(51,51,51,1.0);font-size:12.8px;font-family:'Roboto Medium',sans-serif">No Code</text><path  d="M 162 225
L 162 230" style="stroke-width:0;stroke:rgba(51,51,51,1.0);fill:none"/><text x="178" y="247" style="stroke-width:0;stroke:none;fill:rgba(51,51,51,1.0);font-size:12.8px;font-family:'Roboto Medium',sans-serif">Invalid</text><text x="182" y="264" style="stroke-width:0;stroke:none;fill:rgba(51,51,51,1.0);font-size:12.8px;font-family:'Roboto Medium',sans-serif">Code</text><path  d="M 233 225
L 233 230" style="stroke-width:0;stroke:rgba(51,51,51,1.0);fill:none"/><text x="237" y="247" style="stroke-width:0;stroke:none;fill:rgba(51,51,51,1.0);font-size:12.8px;font-family:'Roboto Medium',sans-serif">Executable</text><text x="253" y="264" style="stroke-width:0;stroke:none;fill:rgba(51,51,51,1.0);font-size:12.8px;font-family:'Roboto Medium',sans-serif">Code</text><path  d="M 304 225
L 304 230" style="stroke-width:0;stroke:rgba(51,51,51,1.0);fill:none"/><text x="309" y="247" style="stroke-width:0;stroke:none;fill:rgba(51,51,51,1.0);font-size:12.8px;font-family:'Roboto Medium',sans-serif">Statement</text><text x="312" y="264" style="stroke-width:0;stroke:none;fill:rgba(51,51,51,1.0);font-size:12.8px;font-family:'Roboto Medium',sans-serif">Coverage</text><text x="314" y="281" style="stroke-width:0;stroke:none;fill:rgba(51,51,51,1.0);font-size:12.8px;font-family:'Roboto Medium',sans-serif">Reached</text><path  d="M 375 225
L 375 230" style="stroke-width:0;stroke:rgba(51,51,51,1.0);fill:none"/><text x="380" y="247" style="stroke-width:0;stroke:none;fill:rgba(51,51,51,1.0);font-size:12.8px;font-family:'Roboto Medium',sans-serif">No Excess</text><text x="382" y="264" style="stroke-width:0;stroke:none;fill:rgba(51,51,51,1.0);font-size:12.8px;font-family:'Roboto Medium',sans-serif">Response</text><path  d="M 445 225
L 445 66" style="stroke-width:0;stroke:rgba(51,51,51,1.0);fill:none"/><path  d="M 445 225
L 450 225" style="stroke-width:0;stroke:rgba(51,51,51,1.0);fill:none"/><text x="455" y="231" style="stroke-width:0;stroke:none;fill:rgba(51,51,51,1.0);font-size:12.8px;font-family:'Roboto Medium',sans-serif">0</text><path  d="M 445 222
L 450 222" style="stroke-width:0;stroke:rgba(51,51,51,1.0);fill:none"/><text x="455" y="228" style="stroke-width:0;stroke:none;fill:rgba(51,51,51,1.0);font-size:12.8px;font-family:'Roboto Medium',sans-serif">1</text><path  d="M 445 220
L 450 220" style="stroke-width:0;stroke:rgba(51,51,51,1.0);fill:none"/><text x="455" y="226" style="stroke-width:0;stroke:none;fill:rgba(51,51,51,1.0);font-size:12.8px;font-family:'Roboto Medium',sans-serif">2</text><path  d="M 445 218
L 450 218" style="stroke-width:0;stroke:rgba(51,51,51,1.0);fill:none"/><text x="455" y="224" style="stroke-width:0;stroke:none;fill:rgba(51,51,51,1.0);font-size:12.8px;font-family:'Roboto Medium',sans-serif">3</text><path  d="M 445 215
L 450 215" style="stroke-width:0;stroke:rgba(51,51,51,1.0);fill:none"/><text x="455" y="221" style="stroke-width:0;stroke:none;fill:rgba(51,51,51,1.0);font-size:12.8px;font-family:'Roboto Medium',sans-serif">4</text><path  d="M 445 213
L 450 213" style="stroke-width:0;stroke:rgba(51,51,51,1.0);fill:none"/><text x="455" y="219" style="stroke-width:0;stroke:none;fill:rgba(51,51,51,1.0);font-size:12.8px;font-family:'Roboto Medium',sans-serif">5</text><path  d="M 445 211
L 450 211" style="stroke-width:0;stroke:rgba(51,51,51,1.0);fill:none"/><text x="455" y="217" style="stroke-width:0;stroke:none;fill:rgba(51,51,51,1.0);font-size:12.8px;font-family:'Roboto Medium',sans-serif">6</text><path  d="M 445 208
L 450 208" style="stroke-width:0;stroke:rgba(51,51,51,1.0);fill:none"/><text x="455" y="214" style="stroke-width:0;stroke:none;fill:rgba(51,51,51,1.0);font-size:12.8px;font-family:'Roboto Medium',sans-serif">7</text><path  d="M 445 206
L 450 206" style="stroke-width:0;stroke:rgba(51,51,51,1.0);fill:none"/><text x="455" y="212" style="stroke-width:0;stroke:none;fill:rgba(51,51,51,1.0);font-size:12.8px;font-family:'Roboto Medium',sans-serif">8</text><path  d="M 445 204
L 450 204" style="stroke-width:0;stroke:rgba(51,51,51,1.0);fill:none"/><text x="455" y="210" style="stroke-width:0;stroke:none;fill:rgba(51,51,51,1.0);font-size:12.8px;font-family:'Roboto Medium',sans-serif">9</text><path  d="M 445 201
L 450 201" style="stroke-width:0;stroke:rgba(51,51,51,1.0);fill:none"/><text x="455" y="207" style="stroke-width:0;stroke:none;fill:rgba(51,51,51,1.0);font-size:12.8px;font-family:'Roboto Medium',sans-serif">10</text><path  d="M 445 199
L 450 199" style="stroke-width:0;stroke:rgba(51,51,51,1.0);fill:none"/><text x="455" y="205" style="stroke-width:0;stroke:none;fill:rgba(51,51,51,1.0);font-size:12.8px;font-family:'Roboto Medium',sans-serif">11</text><path  d="M 445 197
L 450 197" style="stroke-width:0;stroke:rgba(51,51,51,1.0);fill:none"/><text x="455" y="203" style="stroke-width:0;stroke:none;fill:rgba(51,51,51,1.0);font-size:12.8px;font-family:'Roboto Medium',sans-serif">12</text><path  d="M 445 195
L 450 195" style="stroke-width:0;stroke:rgba(51,51,51,1.0);fill:none"/><text x="455" y="201" style="stroke-width:0;stroke:none;fill:rgba(51,51,51,1.0);font-size:12.8px;font-family:'Roboto Medium',sans-serif">13</text><path  d="M 445 192
L 450 192" style="stroke-width:0;stroke:rgba(51,51,51,1.0);fill:none"/><text x="455" y="198" style="stroke-width:0;stroke:none;fill:rgba(51,51,51,1.0);font-size:12.8px;font-family:'Roboto Medium',sans-serif">14</text><path  d="M 445 190
L 450 190" style="stroke-width:0;stroke:rgba(51,51,51,1.0);fill:none"/><text x="455" y="196" style="stroke-width:0;stroke:none;fill:rgba(51,51,51,1.0);font-size:12.8px;font-family:'Roboto Medium',sans-serif">15</text><path  d="M 445 188
L 450 188" style="stroke-width:0;stroke:rgba(51,51,51,1.0);fill:none"/><text x="455" y="194" style="stroke-width:0;stroke:none;fill:rgba(51,51,51,1.0);font-size:12.8px;font-family:'Roboto Medium',sans-serif">16</text><path  d="M 445 185
L 450 185" style="stroke-width:0;stroke:rgba(51,51,51,1.0);fill:none"/><text x="455" y="191" style="stroke-width:0;stroke:none;fill:rgba(51,51,51,1.0);font-size:12.8px;font-family:'Roboto Medium',sans-serif">17</text><path  d="M 445 183
L 450 183" style="stroke-width:0;stroke:rgba(51,51,51,1.0);fill:none"/><text x="455" y="189" style="stroke-width:0;stroke:none;fill:rgba(51,51,51,1.0);font-size:12.8px;font-family:'Roboto Medium',sans-serif">18</text><path  d="M 445 181
L 450 181" style="stroke-width:0;stroke:rgba(51,51,51,1.0);fill:none"/><text x="455" y="187" style="stroke-width:0;stroke:none;fill:rgba(51,51,51,1.0);font-size:12.8px;font-family:'Roboto Medium',sans-serif">19</text><path  d="M 445 178
L 450 178" style="stroke-width:0;stroke:rgba(51,51,51,1.0);fill:none"/><text x="455" y="184" style="stroke-width:0;stroke:none;fill:rgba(51,51,51,1.0);font-size:12.8px;font-family:'Roboto Medium',sans-serif">20</text><path  d="M 445 176
L 450 176" style="stroke-width:0;stroke:rgba(51,51,51,1.0);fill:none"/><text x="455" y="182" style="stroke-width:0;stroke:none;fill:rgba(51,51,51,1.0);font-size:12.8px;font-family:'Roboto Medium',sans-serif">21</text><path  d="M 445 174
L 450 174" style="stroke-width:0;stroke:rgba(51,51,51,1.0);fill:none"/><text x="455" y="180" style="stroke-width:0;stroke:none;fill:rgba(51,51,51,1.0);font-size:12.8px;font-family:'Roboto Medium',sans-serif">22</text><path  d="M 445 172
L 450 172" style="stroke-width:0;stroke:rgba(51,51,51,1.0);fill:none"/><text x="455" y="178" style="stroke-width:0;stroke:none;fill:rgba(51,51,51,1.0);font-size:12.8px;font-family:'Roboto Medium',sans-serif">23</text><path  d="M 445 169
L 450 169" style="stroke-width:0;stroke:rgba(51,51,51,1.0);fill:none"/><text x="455" y="175" style="stroke-width:0;stroke:none;fill:rgba(51,51,51,1.0);font-size:12.8px;font-family:'Roboto Medium',sans-serif">24</text><path  d="M 445 167
L 450 167" style="stroke-width:0;stroke:rgba(51,51,51,1.0);fill:none"/><text x="455" y="173" style="stroke-width:0;stroke:none;fill:rgba(51,51,51,1.0);font-size:12.8px;font-family:'Roboto Medium',sans-serif">25</text><path  d="M 445 165
L 450 165" style="stroke-width:0;stroke:rgba(51,51,51,1.0);fill:none"/><text x="455" y="171" style="stroke-width:0;stroke:none;fill:rgba(51,51,51,1.0);font-size:12.8px;font-family:'Roboto Medium',sans-serif">26</text><path  d="M 445 162
L 450 162" style="stroke-width:0;stroke:rgba(51,51,51,1.0);fill:none"/><text x="455" y="168" style="stroke-width:0;stroke:none;fill:rgba(51,51,51,1.0);font-size:12.8px;font-family:'Roboto Medium',sans-serif">27</text><path  d="M 445 160
L 450 160" style="stroke-width:0;stroke:rgba(51,51,51,1.0);fill:none"/><text x="455" y="166" style="stroke-width:0;stroke:none;fill:rgba(51,51,51,1.0);font-size:12.8px;font-family:'Roboto Medium',sans-serif">28</text><path  d="M 445 158
L 450 158" style="stroke-width:0;stroke:rgba(51,51,51,1.0);fill:none"/><text x="455" y="164" style="stroke-width:0;stroke:none;fill:rgba(51,51,51,1.0);font-size:12.8px;font-family:'Roboto Medium',sans-serif">29</text><path  d="M 445 155
L 450 155" style="stroke-width:0;stroke:rgba(51,51,51,1.0);fill:none"/><text x="455" y="161" style="stroke-width:0;stroke:none;fill:rgba(51,51,51,1.0);font-size:12.8px;font-family:'Roboto Medium',sans-serif">30</text><path  d="M 445 153
L 450 153" style="stroke-width:0;stroke:rgba(51,51,51,1.0);fill:none"/><text x="455" y="159" style="stroke-width:0;stroke:none;fill:rgba(51,51,51,1.0);font-size:12.8px;font-family:'Roboto Medium',sans-serif">31</text><path  d="M 445 151
L 450 151" style="stroke-width:0;stroke:rgba(51,51,51,1.0);fill:none"/><text x="455" y="157" style="stroke-width:0;stroke:none;fill:rgba(51,51,51,1.0);font-size:12.8px;font-family:'Roboto Medium',sans-serif">32</text><path  d="M 445 148
L 450 148" style="stroke-width:0;stroke:rgba(51,51,51,1.0);fill:none"/><text x="455" y="154" style="stroke-width:0;stroke:none;fill:rgba(51,51,51,1.0);font-size:12.8px;font-family:'Roboto Medium',sans-serif">33</text><path  d="M 445 146
L 450 146" style="stroke-width:0;stroke:rgba(51,51,51,1.0);fill:none"/><text x="455" y="152" style="stroke-width:0;stroke:none;fill:rgba(51,51,51,1.0);font-size:12.8px;font-family:'Roboto Medium',sans-serif">34</text><path  d="M 445 144
L 450 144" style="stroke-width:0;stroke:rgba(51,51,51,1.0);fill:none"/><text x="455" y="150" style="stroke-width:0;stroke:none;fill:rgba(51,51,51,1.0);font-size:12.8px;font-family:'Roboto Medium',sans-serif">35</text><path  d="M 445 142
L 450 142" style="stroke-width:0;stroke:rgba(51,51,51,1.0);fill:none"/><text x="455" y="148" style="stroke-width:0;stroke:none;fill:rgba(51,51,51,1.0);font-size:12.8px;font-family:'Roboto Medium',sans-serif">36</text><path  d="M 445 139
L 450 139" style="stroke-width:0;stroke:rgba(51,51,51,1.0);fill:none"/><text x="455" y="145" style="stroke-width:0;stroke:none;fill:rgba(51,51,51,1.0);font-size:12.8px;font-family:'Roboto Medium',sans-serif">37</text><path  d="M 445 137
L 450 137" style="stroke-width:0;stroke:rgba(51,51,51,1.0);fill:none"/><text x="455" y="143" style="stroke-width:0;stroke:none;fill:rgba(51,51,51,1.0);font-size:12.8px;font-family:'Roboto Medium',sans-serif">38</text><path  d="M 445 135
L 450 135" style="stroke-width:0;stroke:rgba(51,51,51,1.0);fill:none"/><text x="455" y="141" style="stroke-width:0;stroke:none;fill:rgba(51,51,51,1.0);font-size:12.8px;font-family:'Roboto Medium',sans-serif">39</text><path  d="M 445 132
L 450 132" style="stroke-width:0;stroke:rgba(51,51,51,1.0);fill:none"/><text x="455" y="138" style="stroke-width:0;stroke:none;fill:rgba(51,51,51,1.0);font-size:12.8px;font-family:'Roboto Medium',sans-serif">40</text><path  d="M 445 130
L 450 130" style="stroke-width:0;stroke:rgba(51,51,51,1.0);fill:none"/><text x="455" y="136" style="stroke-width:0;stroke:none;fill:rgba(51,51,51,1.0);font-size:12.8px;font-family:'Roboto Medium',sans-serif">41</text><path  d="M 445 128
L 450 128" style="stroke-width:0;stroke:rgba(51,51,51,1.0);fill:none"/><text x="455" y="134" style="stroke-width:0;stroke:none;fill:rgba(51,51,51,1.0);font-size:12.8px;font-family:'Roboto Medium',sans-serif">42</text><path  d="M 445 125
L 450 125" style="stroke-width:0;stroke:rgba(51,51,51,1.0);fill:none"/><text x="455" y="131" style="stroke-width:0;stroke:none;fill:rgba(51,51,51,1.0);font-size:12.8px;font-family:'Roboto Medium',sans-serif">43</text><path  d="M 445 123
L 450 123" style="stroke-width:0;stroke:rgba(51,51,51,1.0);fill:none"/><text x="455" y="129" style="stroke-width:0;stroke:none;fill:rgba(51,51,51,1.0);font-size:12.8px;font-family:'Roboto Medium',sans-serif">44</text><path  d="M 445 121
L 450 121" style="stroke-width:0;stroke:rgba(51,51,51,1.0);fill:none"/><text x="455" y="127" style="stroke-width:0;stroke:none;fill:rgba(51,51,51,1.0);font-size:12.8px;font-family:'Roboto Medium',sans-serif">45</text><path  d="M 445 119
L 450 119" style="stroke-width:0;stroke:rgba(51,51,51,1.0);fill:none"/><text x="455" y="125" style="stroke-width:0;stroke:none;fill:rgba(51,51,51,1.0);font-size:12.8px;font-family:'Roboto Medium',sans-serif">46</text><path  d="M 445 116
L 450 116" style="stroke-width:0;stroke:rgba(51,51,51,1.0);fill:none"/><text x="455" y="122" style="stroke-width:0;stroke:none;fill:rgba(51,51,51,1.0);font-size:12.8px;font-family:'Roboto Medium',sans-serif">47</text><path  d="M 445 114
L 450 114" style="stroke-width:0;stroke:rgba(51,51,51,1.0);fill:none"/><text x="455" y="120" style="stroke-width:0;stroke:none;fill:rgba(51,51,51,1.0);font-size:12.8px;font-family:'Roboto Medium',sans-serif">48</text><path  d="M 445 112
L 450 112" style="stroke-width:0;stroke:rgba(51,51,51,1.0);fill:none"/><text x="455" y="118" style="stroke-width:0;stroke:none;fill:rgba(51,51,51,1.0);font-size:12.8px;font-family:'Roboto Medium',sans-serif">49</text><path  d="M 445 109
L 450 109" style="stroke-width:0;stroke:rgba(51,51,51,1.0);fill:none"/><text x="455" y="115" style="stroke-width:0;stroke:none;fill:rgba(51,51,51,1.0);font-size:12.8px;font-family:'Roboto Medium',sans-serif">50</text><path  d="M 445 107
L 450 107" style="stroke-width:0;stroke:rgba(51,51,51,1.0);fill:none"/><text x="455" y="113" style="stroke-width:0;stroke:none;fill:rgba(51,51,51,1.0);font-size:12.8px;font-family:'Roboto Medium',sans-serif">51</text><path  d="M 445 105
L 450 105" style="stroke-width:0;stroke:rgba(51,51,51,1.0);fill:none"/><text x="455" y="111" style="stroke-width:0;stroke:none;fill:rgba(51,51,51,1.0);font-size:12.8px;font-family:'Roboto Medium',sans-serif">52</text><path  d="M 445 102
L 450 102" style="stroke-width:0;stroke:rgba(51,51,51,1.0);fill:none"/><text x="455" y="108" style="stroke-width:0;stroke:none;fill:rgba(51,51,51,1.0);font-size:12.8px;font-family:'Roboto Medium',sans-serif">53</text><path  d="M 445 100
L 450 100" style="stroke-width:0;stroke:rgba(51,51,51,1.0);fill:none"/><text x="455" y="106" style="stroke-width:0;stroke:none;fill:rgba(51,51,51,1.0);font-size:12.8px;font-family:'Roboto Medium',sans-serif">54</text><path  d="M 445 98
L 450 98" style="stroke-width:0;stroke:rgba(51,51,51,1.0);fill:none"/><text x="455" y="104" style="stroke-width:0;stroke:none;fill:rgba(51,51,51,1.0);font-size:12.8px;font-family:'Roboto Medium',sans-serif">55</text><path  d="M 445 95
L 450 95" style="stroke-width:0;stroke:rgba(51,51,51,1.0);fill:none"/><text x="455" y="101" style="stroke-width:0;stroke:none;fill:rgba(51,51,51,1.0);font-size:12.8px;font-family:'Roboto Medium',sans-serif">56</text><path  d="M 445 93
L 450 93" style="stroke-width:0;stroke:rgba(51,51,51,1.0);fill:none"/><text x="455" y="99" style="stroke-width:0;stroke:none;fill:rgba(51,51,51,1.0);font-size:12.8px;font-family:'Roboto Medium',sans-serif">57</text><path  d="M 445 91
L 450 91" style="stroke-width:0;stroke:rgba(51,51,51,1.0);fill:none"/><text x="455" y="97" style="stroke-width:0;stroke:none;fill:rgba(51,51,51,1.0);font-size:12.8px;font-family:'Roboto Medium',sans-serif">58</text><path  d="M 445 89
L 450 89" style="stroke-width:0;stroke:rgba(51,51,51,1.0);fill:none"/><text x="455" y="95" style="stroke-width:0;stroke:none;fill:rgba(51,51,51,1.0);font-size:12.8px;font-family:'Roboto Medium',sans-serif">59</text><path  d="M 445 86
L 450 86" style="stroke-width:0;stroke:rgba(51,51,51,1.0);fill:none"/><text x="455" y="92" style="stroke-width:0;stroke:none;fill:rgba(51,51,51,1.0);font-size:12.8px;font-family:'Roboto Medium',sans-serif">60</text><path  d="M 445 84
L 450 84" style="stroke-width:0;stroke:rgba(51,51,51,1.0);fill:none"/><text x="455" y="90" style="stroke-width:0;stroke:none;fill:rgba(51,51,51,1.0);font-size:12.8px;font-family:'Roboto Medium',sans-serif">61</text><path  d="M 445 82
L 450 82" style="stroke-width:0;stroke:rgba(51,51,51,1.0);fill:none"/><text x="455" y="88" style="stroke-width:0;stroke:none;fill:rgba(51,51,51,1.0);font-size:12.8px;font-family:'Roboto Medium',sans-serif">62</text><path  d="M 445 79
L 450 79" style="stroke-width:0;stroke:rgba(51,51,51,1.0);fill:none"/><text x="455" y="85" style="stroke-width:0;stroke:none;fill:rgba(51,51,51,1.0);font-size:12.8px;font-family:'Roboto Medium',sans-serif">63</text><path  d="M 445 77
L 450 77" style="stroke-width:0;stroke:rgba(51,51,51,1.0);fill:none"/><text x="455" y="83" style="stroke-width:0;stroke:none;fill:rgba(51,51,51,1.0);font-size:12.8px;font-family:'Roboto Medium',sans-serif">64</text><path  d="M 445 75
L 450 75" style="stroke-width:0;stroke:rgba(51,51,51,1.0);fill:none"/><text x="455" y="81" style="stroke-width:0;stroke:none;fill:rgba(51,51,51,1.0);font-size:12.8px;font-family:'Roboto Medium',sans-serif">65</text><path  d="M 445 72
L 450 72" style="stroke-width:0;stroke:rgba(51,51,51,1.0);fill:none"/><text x="455" y="78" style="stroke-width:0;stroke:none;fill:rgba(51,51,51,1.0);font-size:12.8px;font-family:'Roboto Medium',sans-serif">66</text><path  d="M 445 70
L 450 70" style="stroke-width:0;stroke:rgba(51,51,51,1.0);fill:none"/><text x="455" y="76" style="stroke-width:0;stroke:none;fill:rgba(51,51,51,1.0);font-size:12.8px;font-family:'Roboto Medium',sans-serif">67</text><path  d="M 445 68
L 450 68" style="stroke-width:0;stroke:rgba(51,51,51,1.0);fill:none"/><text x="455" y="74" style="stroke-width:0;stroke:none;fill:rgba(51,51,51,1.0);font-size:12.8px;font-family:'Roboto Medium',sans-serif">68</text><path  d="M 445 66
L 450 66" style="stroke-width:0;stroke:rgba(51,51,51,1.0);fill:none"/><text x="455" y="72" style="stroke-width:0;stroke:none;fill:rgba(51,51,51,1.0);font-size:12.8px;font-family:'Roboto Medium',sans-serif">69</text><path  d="M 20 225
L 445 225" style="stroke-width:0;stroke:none;fill:none"/><path  d="M 20 222
L 445 222" style="stroke-width:0;stroke:none;fill:none"/><path  d="M 20 220
L 445 220" style="stroke-width:0;stroke:none;fill:none"/><path  d="M 20 218
L 445 218" style="stroke-width:0;stroke:none;fill:none"/><path  d="M 20 215
L 445 215" style="stroke-width:0;stroke:none;fill:none"/><path  d="M 20 213
L 445 213" style="stroke-width:0;stroke:none;fill:none"/><path  d="M 20 211
L 445 211" style="stroke-width:0;stroke:none;fill:none"/><path  d="M 20 208
L 445 208" style="stroke-width:0;stroke:none;fill:none"/><path  d="M 20 206
L 445 206" style="stroke-width:0;stroke:none;fill:none"/><path  d="M 20 204
L 445 204" style="stroke-width:0;stroke:none;fill:none"/><path  d="M 20 201
L 445 201" style="stroke-width:0;stroke:none;fill:none"/><path  d="M 20 199
L 445 199" style="stroke-width:0;stroke:none;fill:none"/><path  d="M 20 197
L 445 197" style="stroke-width:0;stroke:none;fill:none"/><path  d="M 20 195
L 445 195" style="stroke-width:0;stroke:none;fill:none"/><path  d="M 20 192
L 445 192" style="stroke-width:0;stroke:none;fill:none"/><path  d="M 20 190
L 445 190" style="stroke-width:0;stroke:none;fill:none"/><path  d="M 20 188
L 445 188" style="stroke-width:0;stroke:none;fill:none"/><path  d="M 20 185
L 445 185" style="stroke-width:0;stroke:none;fill:none"/><path  d="M 20 183
L 445 183" style="stroke-width:0;stroke:none;fill:none"/><path  d="M 20 181
L 445 181" style="stroke-width:0;stroke:none;fill:none"/><path  d="M 20 178
L 445 178" style="stroke-width:0;stroke:none;fill:none"/><path  d="M 20 176
L 445 176" style="stroke-width:0;stroke:none;fill:none"/><path  d="M 20 174
L 445 174" style="stroke-width:0;stroke:none;fill:none"/><path  d="M 20 172
L 445 172" style="stroke-width:0;stroke:none;fill:none"/><path  d="M 20 169
L 445 169" style="stroke-width:0;stroke:none;fill:none"/><path  d="M 20 167
L 445 167" style="stroke-width:0;stroke:none;fill:none"/><path  d="M 20 165
L 445 165" style="stroke-width:0;stroke:none;fill:none"/><path  d="M 20 162
L 445 162" style="stroke-width:0;stroke:none;fill:none"/><path  d="M 20 160
L 445 160" style="stroke-width:0;stroke:none;fill:none"/><path  d="M 20 158
L 445 158" style="stroke-width:0;stroke:none;fill:none"/><path  d="M 20 155
L 445 155" style="stroke-width:0;stroke:none;fill:none"/><path  d="M 20 153
L 445 153" style="stroke-width:0;stroke:none;fill:none"/><path  d="M 20 151
L 445 151" style="stroke-width:0;stroke:none;fill:none"/><path  d="M 20 148
L 445 148" style="stroke-width:0;stroke:none;fill:none"/><path  d="M 20 146
L 445 146" style="stroke-width:0;stroke:none;fill:none"/><path  d="M 20 144
L 445 144" style="stroke-width:0;stroke:none;fill:none"/><path  d="M 20 142
L 445 142" style="stroke-width:0;stroke:none;fill:none"/><path  d="M 20 139
L 445 139" style="stroke-width:0;stroke:none;fill:none"/><path  d="M 20 137
L 445 137" style="stroke-width:0;stroke:none;fill:none"/><path  d="M 20 135
L 445 135" style="stroke-width:0;stroke:none;fill:none"/><path  d="M 20 132
L 445 132" style="stroke-width:0;stroke:none;fill:none"/><path  d="M 20 130
L 445 130" style="stroke-width:0;stroke:none;fill:none"/><path  d="M 20 128
L 445 128" style="stroke-width:0;stroke:none;fill:none"/><path  d="M 20 125
L 445 125" style="stroke-width:0;stroke:none;fill:none"/><path  d="M 20 123
L 445 123" style="stroke-width:0;stroke:none;fill:none"/><path  d="M 20 121
L 445 121" style="stroke-width:0;stroke:none;fill:none"/><path  d="M 20 119
L 445 119" style="stroke-width:0;stroke:none;fill:none"/><path  d="M 20 116
L 445 116" style="stroke-width:0;stroke:none;fill:none"/><path  d="M 20 114
L 445 114" style="stroke-width:0;stroke:none;fill:none"/><path  d="M 20 112
L 445 112" style="stroke-width:0;stroke:none;fill:none"/><path  d="M 20 109
L 445 109" style="stroke-width:0;stroke:none;fill:none"/><path  d="M 20 107
L 445 107" style="stroke-width:0;stroke:none;fill:none"/><path  d="M 20 105
L 445 105" style="stroke-width:0;stroke:none;fill:none"/><path  d="M 20 102
L 445 102" style="stroke-width:0;stroke:none;fill:none"/><path  d="M 20 100
L 445 100" style="stroke-width:0;stroke:none;fill:none"/><path  d="M 20 98
L 445 98" style="stroke-width:0;stroke:none;fill:none"/><path  d="M 20 95
L 445 95" style="stroke-width:0;stroke:none;fill:none"/><path  d="M 20 93
L 445 93" style="stroke-width:0;stroke:none;fill:none"/><path  d="M 20 91
L 445 91" style="stroke-width:0;stroke:none;fill:none"/><path  d="M 20 89
L 445 89" style="stroke-width:0;stroke:none;fill:none"/><path  d="M 20 86
L 445 86" style="stroke-width:0;stroke:none;fill:none"/><path  d="M 20 84
L 445 84" style="stroke-width:0;stroke:none;fill:none"/><path  d="M 20 82
L 445 82" style="stroke-width:0;stroke:none;fill:none"/><path  d="M 20 79
L 445 79" style="stroke-width:0;stroke:none;fill:none"/><path  d="M 20 77
L 445 77" style="stroke-width:0;stroke:none;fill:none"/><path  d="M 20 75
L 445 75" style="stroke-width:0;stroke:none;fill:none"/><path  d="M 20 72
L 445 72" style="stroke-width:0;stroke:none;fill:none"/><path  d="M 20 70
L 445 70" style="stroke-width:0;stroke:none;fill:none"/><path  d="M 20 68
L 445 68" style="stroke-width:0;stroke:none;fill:none"/><text x="169" y="25" style="stroke-width:0;stroke:none;fill:rgba(51,51,51,1.0);font-size:15.3px;font-family:'Roboto Medium',sans-serif">Models per Category</text></svg>